# MagicaVoxel @ Ephtracy

# group
o 

# material
mtllib ceiling with wires.mtl
usemtl palette

# normals
vn -1 0 0
vn 1 0 0
vn 0 0 1
vn 0 0 -1
vn 0 -1 0
vn 0 1 0

# texcoords
vt 0.0214844 0.5
vt 0.978516 0.5
vt 0.994141 0.5

# verts
v -2 3.6 2
v -2 3.6 -2
v -2 4 2
v -2 4 -2
v -1.9 3.5 2
v -1.9 3.5 -2
v -1.9 3.6 2
v -1.9 3.6 -2
v -1.4 3.5 2
v -1.4 3.5 -2
v -1.4 3.6 2
v -1.4 3.6 -2
v -0.9 3.5 2
v -0.9 3.5 -2
v -0.9 3.6 2
v -0.9 3.6 -2
v -0.4 3.4 2
v -0.4 3.4 -2
v -0.4 3.5 2
v -0.4 3.5 -2
v -0.4 3.6 2
v -0.4 3.6 -2
v -0.3 3.3 2
v -0.3 3.3 -2
v -0.3 3.4 2
v -0.3 3.4 -2
v 0.1 3.5 2
v 0.1 3.5 -2
v 0.1 3.6 2
v 0.1 3.6 -2
v 0.6 3.5 2
v 0.6 3.5 -2
v 0.6 3.6 2
v 0.6 3.6 -2
v 1.1 3.5 2
v 1.1 3.5 -2
v 1.1 3.6 2
v 1.1 3.6 -2
v 1.6 3.5 2
v 1.6 3.5 -2
v 1.6 3.6 2
v 1.6 3.6 -2
v -1.5 3.5 2
v -1.5 3.5 -2
v -1.5 3.6 2
v -1.5 3.6 -2
v -1 3.5 2
v -1 3.5 -2
v -1 3.6 2
v -1 3.6 -2
v -0.5 3.5 2
v -0.5 3.5 -2
v -0.5 3.6 2
v -0.5 3.6 -2
v -0.0999999 3.3 2
v -0.0999999 3.3 -2
v -0.0999999 3.4 2
v -0.0999999 3.4 -2
v 2.38419e-07 3.4 2
v 2.38419e-07 3.4 -2
v 2.38419e-07 3.5 2
v 2.38419e-07 3.5 -2
v 2.38419e-07 3.6 2
v 2.38419e-07 3.6 -2
v 0.5 3.5 2
v 0.5 3.5 -2
v 0.5 3.6 2
v 0.5 3.6 -2
v 1 3.5 2
v 1 3.5 -2
v 1 3.6 2
v 1 3.6 -2
v 1.5 3.5 2
v 1.5 3.5 -2
v 1.5 3.6 2
v 1.5 3.6 -2
v 2 3.5 2
v 2 3.5 -2
v 2 4 2
v 2 4 -2
v -2 3.6 2
v -2 4 2
v -1.9 3.5 2
v -1.9 3.6 2
v -1.5 3.5 2
v -1.5 3.6 2
v -1.4 3.5 2
v -1.4 3.6 2
v -1 3.5 2
v -1 3.6 2
v -0.9 3.5 2
v -0.9 3.6 2
v -0.5 3.5 2
v -0.5 3.6 2
v -0.4 3.4 2
v -0.4 3.5 2
v -0.4 3.6 2
v -0.3 3.3 2
v -0.3 3.4 2
v -0.3 3.5 2
v -0.0999999 3.3 2
v -0.0999999 3.4 2
v -0.0999999 3.5 2
v 2.38419e-07 3.4 2
v 2.38419e-07 3.5 2
v 2.38419e-07 3.6 2
v 0.1 3.5 2
v 0.1 3.6 2
v 0.5 3.5 2
v 0.5 3.6 2
v 0.6 3.5 2
v 0.6 3.6 2
v 1 3.5 2
v 1 3.6 2
v 1.1 3.5 2
v 1.1 3.6 2
v 1.5 3.5 2
v 1.5 3.6 2
v 1.6 3.5 2
v 1.6 3.6 2
v 2 3.5 2
v 2 4 2
v -2 3.6 -2
v -2 4 -2
v -1.9 3.5 -2
v -1.9 3.6 -2
v -1.5 3.5 -2
v -1.5 3.6 -2
v -1.4 3.5 -2
v -1.4 3.6 -2
v -1 3.5 -2
v -1 3.6 -2
v -0.9 3.5 -2
v -0.9 3.6 -2
v -0.5 3.5 -2
v -0.5 3.6 -2
v -0.4 3.4 -2
v -0.4 3.5 -2
v -0.4 3.6 -2
v -0.3 3.3 -2
v -0.3 3.4 -2
v -0.3 3.5 -2
v -0.0999999 3.3 -2
v -0.0999999 3.4 -2
v -0.0999999 3.5 -2
v 2.38419e-07 3.4 -2
v 2.38419e-07 3.5 -2
v 2.38419e-07 3.6 -2
v 0.1 3.5 -2
v 0.1 3.6 -2
v 0.5 3.5 -2
v 0.5 3.6 -2
v 0.6 3.5 -2
v 0.6 3.6 -2
v 1 3.5 -2
v 1 3.6 -2
v 1.1 3.5 -2
v 1.1 3.6 -2
v 1.5 3.5 -2
v 1.5 3.6 -2
v 1.6 3.5 -2
v 1.6 3.6 -2
v 2 3.5 -2
v 2 4 -2
v -0.3 3.3 2
v -0.0999999 3.3 2
v -0.3 3.3 -2
v -0.0999999 3.3 -2
v -0.4 3.4 2
v -0.3 3.4 2
v -0.0999999 3.4 2
v 2.38419e-07 3.4 2
v -0.4 3.4 -2
v -0.3 3.4 -2
v -0.0999999 3.4 -2
v 2.38419e-07 3.4 -2
v -1.9 3.5 2
v -1.5 3.5 2
v -1.4 3.5 2
v -1 3.5 2
v -0.9 3.5 2
v -0.5 3.5 2
v 0.1 3.5 2
v 0.5 3.5 2
v 0.6 3.5 2
v 1 3.5 2
v 1.1 3.5 2
v 1.5 3.5 2
v 1.6 3.5 2
v 2 3.5 2
v -1.9 3.5 -2
v -1.5 3.5 -2
v -1.4 3.5 -2
v -1 3.5 -2
v -0.9 3.5 -2
v -0.5 3.5 -2
v 0.1 3.5 -2
v 0.5 3.5 -2
v 0.6 3.5 -2
v 1 3.5 -2
v 1.1 3.5 -2
v 1.5 3.5 -2
v 1.6 3.5 -2
v 2 3.5 -2
v -2 3.6 2
v -1.9 3.6 2
v -1.5 3.6 2
v -1.4 3.6 2
v -1 3.6 2
v -0.9 3.6 2
v -0.5 3.6 2
v -0.4 3.6 2
v 2.38419e-07 3.6 2
v 0.1 3.6 2
v 0.5 3.6 2
v 0.6 3.6 2
v 1 3.6 2
v 1.1 3.6 2
v 1.5 3.6 2
v 1.6 3.6 2
v -2 3.6 -2
v -1.9 3.6 -2
v -1.5 3.6 -2
v -1.4 3.6 -2
v -1 3.6 -2
v -0.9 3.6 -2
v -0.5 3.6 -2
v -0.4 3.6 -2
v 2.38419e-07 3.6 -2
v 0.1 3.6 -2
v 0.5 3.6 -2
v 0.6 3.6 -2
v 1 3.6 -2
v 1.1 3.6 -2
v 1.5 3.6 -2
v 1.6 3.6 -2
v -2 4 2
v 2 4 2
v -2 4 -2
v 2 4 -2

# faces
f 3/2/1 2/2/1 1/2/1
f 4/2/1 2/2/1 3/2/1
f 7/2/1 6/2/1 5/2/1
f 8/2/1 6/2/1 7/2/1
f 11/2/1 10/2/1 9/2/1
f 12/2/1 10/2/1 11/2/1
f 15/2/1 14/2/1 13/2/1
f 16/2/1 14/2/1 15/2/1
f 19/1/1 18/1/1 17/1/1
f 20/1/1 18/1/1 19/1/1
f 21/2/1 20/2/1 19/2/1
f 22/2/1 20/2/1 21/2/1
f 25/3/1 24/3/1 23/3/1
f 26/3/1 24/3/1 25/3/1
f 29/2/1 28/2/1 27/2/1
f 30/2/1 28/2/1 29/2/1
f 33/2/1 32/2/1 31/2/1
f 34/2/1 32/2/1 33/2/1
f 37/2/1 36/2/1 35/2/1
f 38/2/1 36/2/1 37/2/1
f 41/2/1 40/2/1 39/2/1
f 42/2/1 40/2/1 41/2/1
f 43/2/2 44/2/2 45/2/2
f 45/2/2 44/2/2 46/2/2
f 47/2/2 48/2/2 49/2/2
f 49/2/2 48/2/2 50/2/2
f 51/2/2 52/2/2 53/2/2
f 53/2/2 52/2/2 54/2/2
f 55/3/2 56/3/2 57/3/2
f 57/3/2 56/3/2 58/3/2
f 59/1/2 60/1/2 61/1/2
f 61/1/2 60/1/2 62/1/2
f 61/2/2 62/2/2 63/2/2
f 63/2/2 62/2/2 64/2/2
f 65/2/2 66/2/2 67/2/2
f 67/2/2 66/2/2 68/2/2
f 69/2/2 70/2/2 71/2/2
f 71/2/2 70/2/2 72/2/2
f 73/2/2 74/2/2 75/2/2
f 75/2/2 74/2/2 76/2/2
f 77/2/2 78/2/2 79/2/2
f 79/2/2 78/2/2 80/2/2
f 84/2/3 82/2/3 81/2/3
f 85/2/3 84/2/3 83/2/3
f 86/2/3 82/2/3 84/2/3
f 86/2/3 84/2/3 85/2/3
f 88/2/3 82/2/3 86/2/3
f 89/2/3 88/2/3 87/2/3
f 90/2/3 82/2/3 88/2/3
f 90/2/3 88/2/3 89/2/3
f 92/2/3 82/2/3 90/2/3
f 93/2/3 92/2/3 91/2/3
f 94/2/3 82/2/3 92/2/3
f 94/2/3 92/2/3 93/2/3
f 97/2/3 82/2/3 94/2/3
f 99/1/3 96/1/3 95/1/3
f 100/2/3 97/2/3 96/2/3
f 100/1/3 96/1/3 99/1/3
f 101/3/3 99/3/3 98/3/3
f 101/3/3 100/3/3 99/3/3
f 102/3/3 100/3/3 101/3/3
f 103/2/3 97/2/3 100/2/3
f 103/3/3 100/3/3 102/3/3
f 104/1/3 103/1/3 102/1/3
f 105/2/3 97/2/3 103/2/3
f 105/1/3 103/1/3 104/1/3
f 106/2/3 82/2/3 97/2/3
f 106/2/3 97/2/3 105/2/3
f 108/2/3 82/2/3 106/2/3
f 109/2/3 108/2/3 107/2/3
f 110/2/3 82/2/3 108/2/3
f 110/2/3 108/2/3 109/2/3
f 112/2/3 82/2/3 110/2/3
f 113/2/3 112/2/3 111/2/3
f 114/2/3 82/2/3 112/2/3
f 114/2/3 112/2/3 113/2/3
f 116/2/3 82/2/3 114/2/3
f 117/2/3 116/2/3 115/2/3
f 118/2/3 82/2/3 116/2/3
f 118/2/3 116/2/3 117/2/3
f 120/2/3 82/2/3 118/2/3
f 121/2/3 120/2/3 119/2/3
f 122/2/3 82/2/3 120/2/3
f 122/2/3 120/2/3 121/2/3
f 123/2/4 124/2/4 126/2/4
f 125/2/4 126/2/4 127/2/4
f 126/2/4 124/2/4 128/2/4
f 127/2/4 126/2/4 128/2/4
f 128/2/4 124/2/4 130/2/4
f 129/2/4 130/2/4 131/2/4
f 130/2/4 124/2/4 132/2/4
f 131/2/4 130/2/4 132/2/4
f 132/2/4 124/2/4 134/2/4
f 133/2/4 134/2/4 135/2/4
f 134/2/4 124/2/4 136/2/4
f 135/2/4 134/2/4 136/2/4
f 136/2/4 124/2/4 139/2/4
f 137/1/4 138/1/4 141/1/4
f 138/2/4 139/2/4 142/2/4
f 141/1/4 138/1/4 142/1/4
f 140/3/4 141/3/4 143/3/4
f 141/3/4 142/3/4 143/3/4
f 143/3/4 142/3/4 144/3/4
f 142/2/4 139/2/4 145/2/4
f 144/3/4 142/3/4 145/3/4
f 144/1/4 145/1/4 146/1/4
f 145/2/4 139/2/4 147/2/4
f 146/1/4 145/1/4 147/1/4
f 139/2/4 124/2/4 148/2/4
f 147/2/4 139/2/4 148/2/4
f 148/2/4 124/2/4 150/2/4
f 149/2/4 150/2/4 151/2/4
f 150/2/4 124/2/4 152/2/4
f 151/2/4 150/2/4 152/2/4
f 152/2/4 124/2/4 154/2/4
f 153/2/4 154/2/4 155/2/4
f 154/2/4 124/2/4 156/2/4
f 155/2/4 154/2/4 156/2/4
f 156/2/4 124/2/4 158/2/4
f 157/2/4 158/2/4 159/2/4
f 158/2/4 124/2/4 160/2/4
f 159/2/4 158/2/4 160/2/4
f 160/2/4 124/2/4 162/2/4
f 161/2/4 162/2/4 163/2/4
f 162/2/4 124/2/4 164/2/4
f 163/2/4 162/2/4 164/2/4
f 167/3/5 166/3/5 165/3/5
f 168/3/5 166/3/5 167/3/5
f 173/1/5 170/1/5 169/1/5
f 174/1/5 170/1/5 173/1/5
f 175/1/5 172/1/5 171/1/5
f 176/1/5 172/1/5 175/1/5
f 191/2/5 178/2/5 177/2/5
f 192/2/5 178/2/5 191/2/5
f 193/2/5 180/2/5 179/2/5
f 194/2/5 180/2/5 193/2/5
f 195/2/5 182/2/5 181/2/5
f 196/2/5 182/2/5 195/2/5
f 197/2/5 184/2/5 183/2/5
f 198/2/5 184/2/5 197/2/5
f 199/2/5 186/2/5 185/2/5
f 200/2/5 186/2/5 199/2/5
f 201/2/5 188/2/5 187/2/5
f 202/2/5 188/2/5 201/2/5
f 203/2/5 190/2/5 189/2/5
f 204/2/5 190/2/5 203/2/5
f 221/2/5 206/2/5 205/2/5
f 222/2/5 206/2/5 221/2/5
f 223/2/5 208/2/5 207/2/5
f 224/2/5 208/2/5 223/2/5
f 225/2/5 210/2/5 209/2/5
f 226/2/5 210/2/5 225/2/5
f 227/2/5 212/2/5 211/2/5
f 228/2/5 212/2/5 227/2/5
f 229/2/5 214/2/5 213/2/5
f 230/2/5 214/2/5 229/2/5
f 231/2/5 216/2/5 215/2/5
f 232/2/5 216/2/5 231/2/5
f 233/2/5 218/2/5 217/2/5
f 234/2/5 218/2/5 233/2/5
f 235/2/5 220/2/5 219/2/5
f 236/2/5 220/2/5 235/2/5
f 237/2/6 238/2/6 239/2/6
f 239/2/6 238/2/6 240/2/6
