# MagicaVoxel @ Ephtracy

# group
o 

# material
mtllib shipping conveyor.mtl
usemtl palette

# normals
vn -1 0 0
vn 1 0 0
vn 0 0 1
vn 0 0 -1
vn 0 -1 0
vn 0 1 0

# texcoords
vt 0.966797 0.5
vt 0.982422 0.5
vt 0.990234 0.5
vt 0.994141 0.5

# verts
v -2.5 0 4.8
v -2.5 0 -5.2
v -2.5 0.4 4.8
v -2.5 0.4 -0.6
v -2.5 5 -0.6
v -2.5 5 -5.2
v -1.9 0.2 -0.7
v -1.9 0.2 -0.8
v -1.9 4.8 -0.7
v -1.9 4.8 -0.8
v -1.5 0.2 -0.7
v -1.5 0.2 -0.8
v -1.5 4.8 -0.7
v -1.5 4.8 -0.8
v -1.1 0.2 -0.7
v -1.1 0.2 -0.8
v -1.1 4.8 -0.7
v -1.1 4.8 -0.8
v -0.7 0.2 -0.7
v -0.7 0.2 -0.8
v -0.7 4.8 -0.7
v -0.7 4.8 -0.8
v -0.3 0.2 -0.7
v -0.3 0.2 -0.8
v -0.3 4.8 -0.7
v -0.3 4.8 -0.8
v 0.1 0.2 -0.7
v 0.1 0.2 -0.8
v 0.1 4.8 -0.7
v 0.1 4.8 -0.8
v 0.5 0.2 -0.7
v 0.5 0.2 -0.8
v 0.5 4.8 -0.7
v 0.5 4.8 -0.8
v 0.9 0.2 -0.7
v 0.9 0.2 -0.8
v 0.9 4.8 -0.7
v 0.9 4.8 -0.8
v 1.3 0.2 -0.7
v 1.3 0.2 -0.8
v 1.3 4.8 -0.7
v 1.3 4.8 -0.8
v 1.7 0.2 -0.7
v 1.7 0.2 -0.8
v 1.7 4.8 -0.7
v 1.7 4.8 -0.8
v 2.1 0.2 -0.7
v 2.1 0.2 -0.8
v 2.1 4.8 -0.7
v 2.1 4.8 -0.8
v 2.3 0.2 4.8
v 2.3 0.2 4.5
v 2.3 0.2 4.4
v 2.3 0.2 4.1
v 2.3 0.2 4
v 2.3 0.2 3.7
v 2.3 0.2 3.6
v 2.3 0.2 3.3
v 2.3 0.2 3.2
v 2.3 0.2 2.9
v 2.3 0.2 2.8
v 2.3 0.2 2.5
v 2.3 0.2 2.4
v 2.3 0.2 2.1
v 2.3 0.2 2
v 2.3 0.2 1.7
v 2.3 0.2 1.6
v 2.3 0.2 1.3
v 2.3 0.2 1.2
v 2.3 0.2 0.9
v 2.3 0.2 0.8
v 2.3 0.2 0.5
v 2.3 0.2 0.4
v 2.3 0.2 0.0999999
v 2.3 0.2 0
v 2.3 0.2 -0.3
v 2.3 0.2 -0.4
v 2.3 0.2 -0.7
v 2.3 0.4 4.8
v 2.3 0.4 -0.6
v 2.3 4.8 -0.6
v 2.3 4.8 -0.7
v -2.3 0.2 4.8
v -2.3 0.2 4.5
v -2.3 0.2 4.4
v -2.3 0.2 4.1
v -2.3 0.2 4
v -2.3 0.2 3.7
v -2.3 0.2 3.6
v -2.3 0.2 3.3
v -2.3 0.2 3.2
v -2.3 0.2 2.9
v -2.3 0.2 2.8
v -2.3 0.2 2.5
v -2.3 0.2 2.4
v -2.3 0.2 2.1
v -2.3 0.2 2
v -2.3 0.2 1.7
v -2.3 0.2 1.6
v -2.3 0.2 1.3
v -2.3 0.2 1.2
v -2.3 0.2 0.9
v -2.3 0.2 0.8
v -2.3 0.2 0.5
v -2.3 0.2 0.4
v -2.3 0.2 0.0999999
v -2.3 0.2 0
v -2.3 0.2 -0.3
v -2.3 0.2 -0.4
v -2.3 0.2 -0.7
v -2.3 0.4 4.8
v -2.3 0.4 -0.6
v -2.3 4.8 -0.6
v -2.3 4.8 -0.7
v -2 0.2 -0.7
v -2 0.2 -0.8
v -2 4.8 -0.7
v -2 4.8 -0.8
v -1.6 0.2 -0.7
v -1.6 0.2 -0.8
v -1.6 4.8 -0.7
v -1.6 4.8 -0.8
v -1.2 0.2 -0.7
v -1.2 0.2 -0.8
v -1.2 4.8 -0.7
v -1.2 4.8 -0.8
v -0.8 0.2 -0.7
v -0.8 0.2 -0.8
v -0.8 4.8 -0.7
v -0.8 4.8 -0.8
v -0.4 0.2 -0.7
v -0.4 0.2 -0.8
v -0.4 4.8 -0.7
v -0.4 4.8 -0.8
v 2.38419e-07 0.2 -0.7
v 2.38419e-07 0.2 -0.8
v 2.38419e-07 4.8 -0.7
v 2.38419e-07 4.8 -0.8
v 0.4 0.2 -0.7
v 0.4 0.2 -0.8
v 0.4 4.8 -0.7
v 0.4 4.8 -0.8
v 0.8 0.2 -0.7
v 0.8 0.2 -0.8
v 0.8 4.8 -0.7
v 0.8 4.8 -0.8
v 1.2 0.2 -0.7
v 1.2 0.2 -0.8
v 1.2 4.8 -0.7
v 1.2 4.8 -0.8
v 1.6 0.2 -0.7
v 1.6 0.2 -0.8
v 1.6 4.8 -0.7
v 1.6 4.8 -0.8
v 2 0.2 -0.7
v 2 0.2 -0.8
v 2 4.8 -0.7
v 2 4.8 -0.8
v 2.5 0 4.8
v 2.5 0 -5.2
v 2.5 0.4 4.8
v 2.5 0.4 -0.6
v 2.5 5 -0.6
v 2.5 5 -5.2
v -2.5 0 4.8
v -2.5 0.4 4.8
v -2.3 0 4.8
v -2.3 0.1 4.8
v -2.3 0.2 4.8
v -2.3 0.4 4.8
v 2.3 0 4.8
v 2.3 0.1 4.8
v 2.3 0.2 4.8
v 2.3 0.4 4.8
v 2.5 0 4.8
v 2.5 0.4 4.8
v -2.5 0.4 -0.6
v -2.5 5 -0.6
v -2.3 0.4 -0.6
v -2.3 4.8 -0.6
v 2.3 0.4 -0.6
v 2.3 4.8 -0.6
v 2.5 0.4 -0.6
v 2.5 5 -0.6
v -2.3 0.2 -0.7
v -2.3 4.8 -0.7
v -2 0.2 -0.7
v -2 4.8 -0.7
v -1.9 0.2 -0.7
v -1.9 4.8 -0.7
v -1.6 0.2 -0.7
v -1.6 4.8 -0.7
v -1.5 0.2 -0.7
v -1.5 4.8 -0.7
v -1.2 0.2 -0.7
v -1.2 4.8 -0.7
v -1.1 0.2 -0.7
v -1.1 4.8 -0.7
v -0.8 0.2 -0.7
v -0.8 4.8 -0.7
v -0.7 0.2 -0.7
v -0.7 4.8 -0.7
v -0.4 0.2 -0.7
v -0.4 4.8 -0.7
v -0.3 0.2 -0.7
v -0.3 4.8 -0.7
v 2.38419e-07 0.2 -0.7
v 2.38419e-07 4.8 -0.7
v 0.1 0.2 -0.7
v 0.1 4.8 -0.7
v 0.4 0.2 -0.7
v 0.4 4.8 -0.7
v 0.5 0.2 -0.7
v 0.5 4.8 -0.7
v 0.8 0.2 -0.7
v 0.8 4.8 -0.7
v 0.9 0.2 -0.7
v 0.9 4.8 -0.7
v 1.2 0.2 -0.7
v 1.2 4.8 -0.7
v 1.3 0.2 -0.7
v 1.3 4.8 -0.7
v 1.6 0.2 -0.7
v 1.6 4.8 -0.7
v 1.7 0.2 -0.7
v 1.7 4.8 -0.7
v 2 0.2 -0.7
v 2 4.8 -0.7
v 2.1 0.2 -0.7
v 2.1 4.8 -0.7
v 2.3 0.2 -0.7
v 2.3 4.8 -0.7
v -2 0.2 -0.8
v -2 4.8 -0.8
v -1.9 0.2 -0.8
v -1.9 4.8 -0.8
v -1.6 0.2 -0.8
v -1.6 4.8 -0.8
v -1.5 0.2 -0.8
v -1.5 4.8 -0.8
v -1.2 0.2 -0.8
v -1.2 4.8 -0.8
v -1.1 0.2 -0.8
v -1.1 4.8 -0.8
v -0.8 0.2 -0.8
v -0.8 4.8 -0.8
v -0.7 0.2 -0.8
v -0.7 4.8 -0.8
v -0.4 0.2 -0.8
v -0.4 4.8 -0.8
v -0.3 0.2 -0.8
v -0.3 4.8 -0.8
v 2.38419e-07 0.2 -0.8
v 2.38419e-07 4.8 -0.8
v 0.1 0.2 -0.8
v 0.1 4.8 -0.8
v 0.4 0.2 -0.8
v 0.4 4.8 -0.8
v 0.5 0.2 -0.8
v 0.5 4.8 -0.8
v 0.8 0.2 -0.8
v 0.8 4.8 -0.8
v 0.9 0.2 -0.8
v 0.9 4.8 -0.8
v 1.2 0.2 -0.8
v 1.2 4.8 -0.8
v 1.3 0.2 -0.8
v 1.3 4.8 -0.8
v 1.6 0.2 -0.8
v 1.6 4.8 -0.8
v 1.7 0.2 -0.8
v 1.7 4.8 -0.8
v 2 0.2 -0.8
v 2 4.8 -0.8
v 2.1 0.2 -0.8
v 2.1 4.8 -0.8
v -2.5 0 -5.2
v -2.5 5 -5.2
v 2.5 0 -5.2
v 2.5 5 -5.2
v -2.5 0 4.8
v -2.3 0 4.8
v 2.3 0 4.8
v 2.5 0 4.8
v -2.3 0 4.7
v 2.3 0 4.7
v -2.3 0 2.4
v 2.3 0 2.4
v -2.3 0 2.3
v 2.3 0 2.3
v -2.3 0 -0.7
v -2 0 -0.7
v -1.9 0 -0.7
v -1.6 0 -0.7
v -1.5 0 -0.7
v -1.2 0 -0.7
v -1.1 0 -0.7
v -0.8 0 -0.7
v -0.7 0 -0.7
v -0.4 0 -0.7
v -0.3 0 -0.7
v 2.38419e-07 0 -0.7
v 0.1 0 -0.7
v 0.4 0 -0.7
v 0.5 0 -0.7
v 0.8 0 -0.7
v 0.9 0 -0.7
v 1.2 0 -0.7
v 1.3 0 -0.7
v 1.6 0 -0.7
v 1.7 0 -0.7
v 2 0 -0.7
v 2.1 0 -0.7
v 2.3 0 -0.7
v -2.3 0 -0.8
v -2 0 -0.8
v -1.9 0 -0.8
v -1.6 0 -0.8
v -1.5 0 -0.8
v -1.2 0 -0.8
v -1.1 0 -0.8
v -0.8 0 -0.8
v -0.7 0 -0.8
v -0.4 0 -0.8
v -0.3 0 -0.8
v 2.38419e-07 0 -0.8
v 0.1 0 -0.8
v 0.4 0 -0.8
v 0.5 0 -0.8
v 0.8 0 -0.8
v 0.9 0 -0.8
v 1.2 0 -0.8
v 1.3 0 -0.8
v 1.6 0 -0.8
v 1.7 0 -0.8
v 2 0 -0.8
v 2.1 0 -0.8
v 2.3 0 -0.8
v -2 0 -0.9
v -1.9 0 -0.9
v -1.6 0 -0.9
v -1.5 0 -0.9
v -1.2 0 -0.9
v -1.1 0 -0.9
v -0.8 0 -0.9
v -0.7 0 -0.9
v -0.4 0 -0.9
v -0.3 0 -0.9
v 2.38419e-07 0 -0.9
v 0.1 0 -0.9
v 0.4 0 -0.9
v 0.5 0 -0.9
v 0.8 0 -0.9
v 0.9 0 -0.9
v 1.2 0 -0.9
v 1.3 0 -0.9
v 1.6 0 -0.9
v 1.7 0 -0.9
v 2 0 -0.9
v 2.1 0 -0.9
v -2.5 0 -5.2
v 2.5 0 -5.2
v -2.3 4.8 -0.6
v 2.3 4.8 -0.6
v -2.3 4.8 -0.7
v -2 4.8 -0.7
v -1.9 4.8 -0.7
v -1.6 4.8 -0.7
v -1.5 4.8 -0.7
v -1.2 4.8 -0.7
v -1.1 4.8 -0.7
v -0.8 4.8 -0.7
v -0.7 4.8 -0.7
v -0.4 4.8 -0.7
v -0.3 4.8 -0.7
v 2.38419e-07 4.8 -0.7
v 0.1 4.8 -0.7
v 0.4 4.8 -0.7
v 0.5 4.8 -0.7
v 0.8 4.8 -0.7
v 0.9 4.8 -0.7
v 1.2 4.8 -0.7
v 1.3 4.8 -0.7
v 1.6 4.8 -0.7
v 1.7 4.8 -0.7
v 2 4.8 -0.7
v 2.1 4.8 -0.7
v 2.3 4.8 -0.7
v -2 4.8 -0.8
v -1.9 4.8 -0.8
v -1.6 4.8 -0.8
v -1.5 4.8 -0.8
v -1.2 4.8 -0.8
v -1.1 4.8 -0.8
v -0.8 4.8 -0.8
v -0.7 4.8 -0.8
v -0.4 4.8 -0.8
v -0.3 4.8 -0.8
v 2.38419e-07 4.8 -0.8
v 0.1 4.8 -0.8
v 0.4 4.8 -0.8
v 0.5 4.8 -0.8
v 0.8 4.8 -0.8
v 0.9 4.8 -0.8
v 1.2 4.8 -0.8
v 1.3 4.8 -0.8
v 1.6 4.8 -0.8
v 1.7 4.8 -0.8
v 2 4.8 -0.8
v 2.1 4.8 -0.8
v -2.3 0.2 4.8
v 2.3 0.2 4.8
v -2.3 0.2 4.5
v 2.3 0.2 4.5
v -2.3 0.2 4.4
v 2.3 0.2 4.4
v -2.3 0.2 4.1
v 2.3 0.2 4.1
v -2.3 0.2 4
v 2.3 0.2 4
v -2.3 0.2 3.7
v 2.3 0.2 3.7
v -2.3 0.2 3.6
v 2.3 0.2 3.6
v -2.3 0.2 3.3
v 2.3 0.2 3.3
v -2.3 0.2 3.2
v 2.3 0.2 3.2
v -2.3 0.2 2.9
v 2.3 0.2 2.9
v -2.3 0.2 2.8
v 2.3 0.2 2.8
v -2.3 0.2 2.5
v 2.3 0.2 2.5
v -2.3 0.2 2.4
v 2.3 0.2 2.4
v -2.3 0.2 2.1
v 2.3 0.2 2.1
v -2.3 0.2 2
v 2.3 0.2 2
v -2.3 0.2 1.7
v 2.3 0.2 1.7
v -2.3 0.2 1.6
v 2.3 0.2 1.6
v -2.3 0.2 1.3
v 2.3 0.2 1.3
v -2.3 0.2 1.2
v 2.3 0.2 1.2
v -2.3 0.2 0.9
v 2.3 0.2 0.9
v -2.3 0.2 0.8
v 2.3 0.2 0.8
v -2.3 0.2 0.5
v 2.3 0.2 0.5
v -2.3 0.2 0.4
v 2.3 0.2 0.4
v -2.3 0.2 0.0999999
v 2.3 0.2 0.0999999
v -2.3 0.2 0
v 2.3 0.2 0
v -2.3 0.2 -0.3
v 2.3 0.2 -0.3
v -2.3 0.2 -0.4
v 2.3 0.2 -0.4
v -2.3 0.2 -0.7
v -2 0.2 -0.7
v -1.9 0.2 -0.7
v -1.6 0.2 -0.7
v -1.5 0.2 -0.7
v -1.2 0.2 -0.7
v -1.1 0.2 -0.7
v -0.8 0.2 -0.7
v -0.7 0.2 -0.7
v -0.4 0.2 -0.7
v -0.3 0.2 -0.7
v 2.38419e-07 0.2 -0.7
v 0.1 0.2 -0.7
v 0.4 0.2 -0.7
v 0.5 0.2 -0.7
v 0.8 0.2 -0.7
v 0.9 0.2 -0.7
v 1.2 0.2 -0.7
v 1.3 0.2 -0.7
v 1.6 0.2 -0.7
v 1.7 0.2 -0.7
v 2 0.2 -0.7
v 2.1 0.2 -0.7
v 2.3 0.2 -0.7
v -2 0.2 -0.8
v -1.9 0.2 -0.8
v -1.6 0.2 -0.8
v -1.5 0.2 -0.8
v -1.2 0.2 -0.8
v -1.1 0.2 -0.8
v -0.8 0.2 -0.8
v -0.7 0.2 -0.8
v -0.4 0.2 -0.8
v -0.3 0.2 -0.8
v 2.38419e-07 0.2 -0.8
v 0.1 0.2 -0.8
v 0.4 0.2 -0.8
v 0.5 0.2 -0.8
v 0.8 0.2 -0.8
v 0.9 0.2 -0.8
v 1.2 0.2 -0.8
v 1.3 0.2 -0.8
v 1.6 0.2 -0.8
v 1.7 0.2 -0.8
v 2 0.2 -0.8
v 2.1 0.2 -0.8
v -2.5 0.4 4.8
v -2.3 0.4 4.8
v 2.3 0.4 4.8
v 2.5 0.4 4.8
v -2.5 0.4 -0.6
v -2.3 0.4 -0.6
v 2.3 0.4 -0.6
v 2.5 0.4 -0.6
v -2.5 5 -0.6
v 2.5 5 -0.6
v -2.5 5 -5.2
v 2.5 5 -5.2

# faces
f 3/1/1 2/1/1 1/1/1
f 4/1/1 2/1/1 3/1/1
f 5/1/1 2/1/1 4/1/1
f 6/1/1 2/1/1 5/1/1
f 9/2/1 8/2/1 7/2/1
f 10/2/1 8/2/1 9/2/1
f 13/2/1 12/2/1 11/2/1
f 14/2/1 12/2/1 13/2/1
f 17/2/1 16/2/1 15/2/1
f 18/2/1 16/2/1 17/2/1
f 21/2/1 20/2/1 19/2/1
f 22/2/1 20/2/1 21/2/1
f 25/2/1 24/2/1 23/2/1
f 26/2/1 24/2/1 25/2/1
f 29/2/1 28/2/1 27/2/1
f 30/2/1 28/2/1 29/2/1
f 33/2/1 32/2/1 31/2/1
f 34/2/1 32/2/1 33/2/1
f 37/2/1 36/2/1 35/2/1
f 38/2/1 36/2/1 37/2/1
f 41/2/1 40/2/1 39/2/1
f 42/2/1 40/2/1 41/2/1
f 45/2/1 44/2/1 43/2/1
f 46/2/1 44/2/1 45/2/1
f 49/2/1 48/2/1 47/2/1
f 50/2/1 48/2/1 49/2/1
f 79/1/1 52/1/1 51/1/1
f 79/1/1 78/1/1 77/1/1
f 79/1/1 77/1/1 76/1/1
f 79/1/1 76/1/1 75/1/1
f 79/1/1 75/1/1 74/1/1
f 79/1/1 74/1/1 73/1/1
f 79/1/1 73/1/1 72/1/1
f 79/1/1 72/1/1 71/1/1
f 79/1/1 71/1/1 70/1/1
f 79/1/1 70/1/1 69/1/1
f 79/1/1 69/1/1 68/1/1
f 79/1/1 68/1/1 67/1/1
f 79/1/1 67/1/1 66/1/1
f 79/1/1 66/1/1 65/1/1
f 79/1/1 65/1/1 64/1/1
f 79/1/1 64/1/1 63/1/1
f 79/1/1 63/1/1 62/1/1
f 79/1/1 62/1/1 61/1/1
f 79/1/1 61/1/1 60/1/1
f 79/1/1 60/1/1 59/1/1
f 79/1/1 59/1/1 58/1/1
f 79/1/1 58/1/1 57/1/1
f 79/1/1 57/1/1 56/1/1
f 79/1/1 56/1/1 55/1/1
f 79/1/1 55/1/1 54/1/1
f 79/1/1 54/1/1 53/1/1
f 79/1/1 53/1/1 52/1/1
f 80/1/1 78/1/1 79/1/1
f 81/1/1 78/1/1 80/1/1
f 82/1/1 78/1/1 81/1/1
f 83/1/2 84/1/2 111/1/2
f 109/1/2 110/1/2 111/1/2
f 108/1/2 109/1/2 111/1/2
f 107/1/2 108/1/2 111/1/2
f 106/1/2 107/1/2 111/1/2
f 105/1/2 106/1/2 111/1/2
f 104/1/2 105/1/2 111/1/2
f 103/1/2 104/1/2 111/1/2
f 102/1/2 103/1/2 111/1/2
f 101/1/2 102/1/2 111/1/2
f 100/1/2 101/1/2 111/1/2
f 99/1/2 100/1/2 111/1/2
f 98/1/2 99/1/2 111/1/2
f 97/1/2 98/1/2 111/1/2
f 96/1/2 97/1/2 111/1/2
f 95/1/2 96/1/2 111/1/2
f 94/1/2 95/1/2 111/1/2
f 93/1/2 94/1/2 111/1/2
f 92/1/2 93/1/2 111/1/2
f 91/1/2 92/1/2 111/1/2
f 90/1/2 91/1/2 111/1/2
f 89/1/2 90/1/2 111/1/2
f 88/1/2 89/1/2 111/1/2
f 87/1/2 88/1/2 111/1/2
f 86/1/2 87/1/2 111/1/2
f 85/1/2 86/1/2 111/1/2
f 84/1/2 85/1/2 111/1/2
f 111/1/2 110/1/2 112/1/2
f 112/1/2 110/1/2 113/1/2
f 113/1/2 110/1/2 114/1/2
f 115/2/2 116/2/2 117/2/2
f 117/2/2 116/2/2 118/2/2
f 119/2/2 120/2/2 121/2/2
f 121/2/2 120/2/2 122/2/2
f 123/2/2 124/2/2 125/2/2
f 125/2/2 124/2/2 126/2/2
f 127/2/2 128/2/2 129/2/2
f 129/2/2 128/2/2 130/2/2
f 131/2/2 132/2/2 133/2/2
f 133/2/2 132/2/2 134/2/2
f 135/2/2 136/2/2 137/2/2
f 137/2/2 136/2/2 138/2/2
f 139/2/2 140/2/2 141/2/2
f 141/2/2 140/2/2 142/2/2
f 143/2/2 144/2/2 145/2/2
f 145/2/2 144/2/2 146/2/2
f 147/2/2 148/2/2 149/2/2
f 149/2/2 148/2/2 150/2/2
f 151/2/2 152/2/2 153/2/2
f 153/2/2 152/2/2 154/2/2
f 155/2/2 156/2/2 157/2/2
f 157/2/2 156/2/2 158/2/2
f 159/1/2 160/1/2 161/1/2
f 161/1/2 160/1/2 162/1/2
f 162/1/2 160/1/2 163/1/2
f 163/1/2 160/1/2 164/1/2
f 167/1/3 166/1/3 165/1/3
f 168/1/3 166/1/3 167/1/3
f 169/1/3 166/1/3 168/1/3
f 170/1/3 166/1/3 169/1/3
f 171/4/3 168/4/3 167/4/3
f 172/3/3 169/3/3 168/3/3
f 172/4/3 168/4/3 171/4/3
f 173/3/3 169/3/3 172/3/3
f 175/1/3 172/1/3 171/1/3
f 175/1/3 174/1/3 173/1/3
f 175/1/3 173/1/3 172/1/3
f 176/1/3 174/1/3 175/1/3
f 179/1/3 178/1/3 177/1/3
f 180/1/3 178/1/3 179/1/3
f 182/1/3 178/1/3 180/1/3
f 183/1/3 182/1/3 181/1/3
f 184/1/3 178/1/3 182/1/3
f 184/1/3 182/1/3 183/1/3
f 187/2/3 186/2/3 185/2/3
f 188/2/3 186/2/3 187/2/3
f 191/2/3 190/2/3 189/2/3
f 192/2/3 190/2/3 191/2/3
f 195/2/3 194/2/3 193/2/3
f 196/2/3 194/2/3 195/2/3
f 199/2/3 198/2/3 197/2/3
f 200/2/3 198/2/3 199/2/3
f 203/2/3 202/2/3 201/2/3
f 204/2/3 202/2/3 203/2/3
f 207/2/3 206/2/3 205/2/3
f 208/2/3 206/2/3 207/2/3
f 211/2/3 210/2/3 209/2/3
f 212/2/3 210/2/3 211/2/3
f 215/2/3 214/2/3 213/2/3
f 216/2/3 214/2/3 215/2/3
f 219/2/3 218/2/3 217/2/3
f 220/2/3 218/2/3 219/2/3
f 223/2/3 222/2/3 221/2/3
f 224/2/3 222/2/3 223/2/3
f 227/2/3 226/2/3 225/2/3
f 228/2/3 226/2/3 227/2/3
f 231/2/3 230/2/3 229/2/3
f 232/2/3 230/2/3 231/2/3
f 235/4/3 234/4/3 233/4/3
f 236/4/3 234/4/3 235/4/3
f 239/4/3 238/4/3 237/4/3
f 240/4/3 238/4/3 239/4/3
f 243/4/3 242/4/3 241/4/3
f 244/4/3 242/4/3 243/4/3
f 247/4/3 246/4/3 245/4/3
f 248/4/3 246/4/3 247/4/3
f 251/4/3 250/4/3 249/4/3
f 252/4/3 250/4/3 251/4/3
f 255/4/3 254/4/3 253/4/3
f 256/4/3 254/4/3 255/4/3
f 259/4/3 258/4/3 257/4/3
f 260/4/3 258/4/3 259/4/3
f 263/4/3 262/4/3 261/4/3
f 264/4/3 262/4/3 263/4/3
f 267/4/3 266/4/3 265/4/3
f 268/4/3 266/4/3 267/4/3
f 271/4/3 270/4/3 269/4/3
f 272/4/3 270/4/3 271/4/3
f 275/4/3 274/4/3 273/4/3
f 276/4/3 274/4/3 275/4/3
f 277/1/4 278/1/4 279/1/4
f 279/1/4 278/1/4 280/1/4
f 285/1/5 282/1/5 281/1/5
f 285/4/5 283/4/5 282/4/5
f 286/1/5 284/1/5 283/1/5
f 286/4/5 283/4/5 285/4/5
f 287/1/5 285/1/5 281/1/5
f 287/3/5 286/3/5 285/3/5
f 288/1/5 284/1/5 286/1/5
f 288/3/5 286/3/5 287/3/5
f 289/1/5 287/1/5 281/1/5
f 289/1/5 288/1/5 287/1/5
f 290/1/5 284/1/5 288/1/5
f 290/1/5 288/1/5 289/1/5
f 291/1/5 289/1/5 281/1/5
f 291/3/5 290/3/5 289/3/5
f 292/3/5 290/3/5 291/3/5
f 293/3/5 290/3/5 292/3/5
f 294/3/5 290/3/5 293/3/5
f 295/3/5 290/3/5 294/3/5
f 296/3/5 290/3/5 295/3/5
f 297/3/5 290/3/5 296/3/5
f 298/3/5 290/3/5 297/3/5
f 299/3/5 290/3/5 298/3/5
f 300/3/5 290/3/5 299/3/5
f 301/3/5 290/3/5 300/3/5
f 302/3/5 290/3/5 301/3/5
f 303/3/5 290/3/5 302/3/5
f 304/3/5 290/3/5 303/3/5
f 305/3/5 290/3/5 304/3/5
f 306/3/5 290/3/5 305/3/5
f 307/3/5 290/3/5 306/3/5
f 308/3/5 290/3/5 307/3/5
f 309/3/5 290/3/5 308/3/5
f 310/3/5 290/3/5 309/3/5
f 311/3/5 290/3/5 310/3/5
f 312/3/5 290/3/5 311/3/5
f 313/3/5 290/3/5 312/3/5
f 314/1/5 284/1/5 290/1/5
f 314/3/5 290/3/5 313/3/5
f 315/1/5 291/1/5 281/1/5
f 315/2/5 292/2/5 291/2/5
f 316/3/5 293/3/5 292/3/5
f 316/2/5 292/2/5 315/2/5
f 317/2/5 294/2/5 293/2/5
f 317/3/5 293/3/5 316/3/5
f 318/3/5 295/3/5 294/3/5
f 318/2/5 294/2/5 317/2/5
f 319/2/5 296/2/5 295/2/5
f 319/3/5 295/3/5 318/3/5
f 320/3/5 297/3/5 296/3/5
f 320/2/5 296/2/5 319/2/5
f 321/2/5 298/2/5 297/2/5
f 321/3/5 297/3/5 320/3/5
f 322/3/5 299/3/5 298/3/5
f 322/2/5 298/2/5 321/2/5
f 323/2/5 300/2/5 299/2/5
f 323/3/5 299/3/5 322/3/5
f 324/3/5 301/3/5 300/3/5
f 324/2/5 300/2/5 323/2/5
f 325/2/5 302/2/5 301/2/5
f 325/3/5 301/3/5 324/3/5
f 326/3/5 303/3/5 302/3/5
f 326/2/5 302/2/5 325/2/5
f 327/2/5 304/2/5 303/2/5
f 327/3/5 303/3/5 326/3/5
f 328/3/5 305/3/5 304/3/5
f 328/2/5 304/2/5 327/2/5
f 329/2/5 306/2/5 305/2/5
f 329/3/5 305/3/5 328/3/5
f 330/3/5 307/3/5 306/3/5
f 330/2/5 306/2/5 329/2/5
f 331/2/5 308/2/5 307/2/5
f 331/3/5 307/3/5 330/3/5
f 332/3/5 309/3/5 308/3/5
f 332/2/5 308/2/5 331/2/5
f 333/2/5 310/2/5 309/2/5
f 333/3/5 309/3/5 332/3/5
f 334/3/5 311/3/5 310/3/5
f 334/2/5 310/2/5 333/2/5
f 335/2/5 312/2/5 311/2/5
f 335/3/5 311/3/5 334/3/5
f 336/3/5 313/3/5 312/3/5
f 336/2/5 312/2/5 335/2/5
f 337/2/5 314/2/5 313/2/5
f 337/3/5 313/3/5 336/3/5
f 338/1/5 284/1/5 314/1/5
f 338/2/5 314/2/5 337/2/5
f 339/1/5 316/1/5 315/1/5
f 339/3/5 317/3/5 316/3/5
f 340/1/5 318/1/5 317/1/5
f 340/3/5 317/3/5 339/3/5
f 341/3/5 319/3/5 318/3/5
f 341/1/5 318/1/5 340/1/5
f 342/1/5 320/1/5 319/1/5
f 342/3/5 319/3/5 341/3/5
f 343/3/5 321/3/5 320/3/5
f 343/1/5 320/1/5 342/1/5
f 344/1/5 322/1/5 321/1/5
f 344/3/5 321/3/5 343/3/5
f 345/3/5 323/3/5 322/3/5
f 345/1/5 322/1/5 344/1/5
f 346/1/5 324/1/5 323/1/5
f 346/3/5 323/3/5 345/3/5
f 347/3/5 325/3/5 324/3/5
f 347/1/5 324/1/5 346/1/5
f 348/1/5 326/1/5 325/1/5
f 348/3/5 325/3/5 347/3/5
f 349/3/5 327/3/5 326/3/5
f 349/1/5 326/1/5 348/1/5
f 350/1/5 328/1/5 327/1/5
f 350/3/5 327/3/5 349/3/5
f 351/3/5 329/3/5 328/3/5
f 351/1/5 328/1/5 350/1/5
f 352/1/5 330/1/5 329/1/5
f 352/3/5 329/3/5 351/3/5
f 353/3/5 331/3/5 330/3/5
f 353/1/5 330/1/5 352/1/5
f 354/1/5 332/1/5 331/1/5
f 354/3/5 331/3/5 353/3/5
f 355/3/5 333/3/5 332/3/5
f 355/1/5 332/1/5 354/1/5
f 356/1/5 334/1/5 333/1/5
f 356/3/5 333/3/5 355/3/5
f 357/3/5 335/3/5 334/3/5
f 357/1/5 334/1/5 356/1/5
f 358/1/5 336/1/5 335/1/5
f 358/3/5 335/3/5 357/3/5
f 359/3/5 337/3/5 336/3/5
f 359/1/5 336/1/5 358/1/5
f 360/1/5 338/1/5 337/1/5
f 360/3/5 337/3/5 359/3/5
f 361/1/5 356/1/5 355/1/5
f 361/1/5 358/1/5 357/1/5
f 361/1/5 360/1/5 359/1/5
f 361/1/5 355/1/5 354/1/5
f 361/1/5 354/1/5 353/1/5
f 361/1/5 353/1/5 352/1/5
f 361/1/5 352/1/5 351/1/5
f 361/1/5 351/1/5 350/1/5
f 361/1/5 350/1/5 349/1/5
f 361/1/5 349/1/5 348/1/5
f 361/1/5 348/1/5 347/1/5
f 361/1/5 347/1/5 346/1/5
f 361/1/5 346/1/5 345/1/5
f 361/1/5 345/1/5 344/1/5
f 361/1/5 344/1/5 343/1/5
f 361/1/5 343/1/5 342/1/5
f 361/1/5 342/1/5 341/1/5
f 361/1/5 341/1/5 340/1/5
f 361/1/5 340/1/5 339/1/5
f 361/1/5 339/1/5 315/1/5
f 361/1/5 359/1/5 358/1/5
f 361/1/5 357/1/5 356/1/5
f 361/1/5 315/1/5 281/1/5
f 362/1/5 338/1/5 360/1/5
f 362/1/5 360/1/5 361/1/5
f 362/1/5 284/1/5 338/1/5
f 365/1/5 364/1/5 363/1/5
f 366/1/5 364/1/5 365/1/5
f 367/1/5 364/1/5 366/1/5
f 368/1/5 364/1/5 367/1/5
f 369/1/5 364/1/5 368/1/5
f 370/1/5 364/1/5 369/1/5
f 371/1/5 364/1/5 370/1/5
f 372/1/5 364/1/5 371/1/5
f 373/1/5 364/1/5 372/1/5
f 374/1/5 364/1/5 373/1/5
f 375/1/5 364/1/5 374/1/5
f 376/1/5 364/1/5 375/1/5
f 377/1/5 364/1/5 376/1/5
f 378/1/5 364/1/5 377/1/5
f 379/1/5 364/1/5 378/1/5
f 380/1/5 364/1/5 379/1/5
f 381/1/5 364/1/5 380/1/5
f 382/1/5 364/1/5 381/1/5
f 383/1/5 364/1/5 382/1/5
f 384/1/5 364/1/5 383/1/5
f 385/1/5 364/1/5 384/1/5
f 386/1/5 364/1/5 385/1/5
f 387/1/5 364/1/5 386/1/5
f 388/1/5 364/1/5 387/1/5
f 389/1/5 367/1/5 366/1/5
f 390/1/5 367/1/5 389/1/5
f 391/1/5 369/1/5 368/1/5
f 392/1/5 369/1/5 391/1/5
f 393/1/5 371/1/5 370/1/5
f 394/1/5 371/1/5 393/1/5
f 395/1/5 373/1/5 372/1/5
f 396/1/5 373/1/5 395/1/5
f 397/1/5 375/1/5 374/1/5
f 398/1/5 375/1/5 397/1/5
f 399/1/5 377/1/5 376/1/5
f 400/1/5 377/1/5 399/1/5
f 401/1/5 379/1/5 378/1/5
f 402/1/5 379/1/5 401/1/5
f 403/1/5 381/1/5 380/1/5
f 404/1/5 381/1/5 403/1/5
f 405/1/5 383/1/5 382/1/5
f 406/1/5 383/1/5 405/1/5
f 407/1/5 385/1/5 384/1/5
f 408/1/5 385/1/5 407/1/5
f 409/1/5 387/1/5 386/1/5
f 410/1/5 387/1/5 409/1/5
f 411/3/6 412/3/6 413/3/6
f 413/3/6 412/3/6 414/3/6
f 413/4/6 414/4/6 415/4/6
f 415/4/6 414/4/6 416/4/6
f 415/3/6 416/3/6 417/3/6
f 417/3/6 416/3/6 418/3/6
f 417/4/6 418/4/6 419/4/6
f 419/4/6 418/4/6 420/4/6
f 419/3/6 420/3/6 421/3/6
f 421/3/6 420/3/6 422/3/6
f 421/4/6 422/4/6 423/4/6
f 423/4/6 422/4/6 424/4/6
f 423/3/6 424/3/6 425/3/6
f 425/3/6 424/3/6 426/3/6
f 425/4/6 426/4/6 427/4/6
f 427/4/6 426/4/6 428/4/6
f 427/3/6 428/3/6 429/3/6
f 429/3/6 428/3/6 430/3/6
f 429/4/6 430/4/6 431/4/6
f 431/4/6 430/4/6 432/4/6
f 431/3/6 432/3/6 433/3/6
f 433/3/6 432/3/6 434/3/6
f 433/4/6 434/4/6 435/4/6
f 435/4/6 434/4/6 436/4/6
f 435/3/6 436/3/6 437/3/6
f 437/3/6 436/3/6 438/3/6
f 437/4/6 438/4/6 439/4/6
f 439/4/6 438/4/6 440/4/6
f 439/3/6 440/3/6 441/3/6
f 441/3/6 440/3/6 442/3/6
f 441/4/6 442/4/6 443/4/6
f 443/4/6 442/4/6 444/4/6
f 443/3/6 444/3/6 445/3/6
f 445/3/6 444/3/6 446/3/6
f 445/4/6 446/4/6 447/4/6
f 447/4/6 446/4/6 448/4/6
f 447/3/6 448/3/6 449/3/6
f 449/3/6 448/3/6 450/3/6
f 449/4/6 450/4/6 451/4/6
f 451/4/6 450/4/6 452/4/6
f 451/3/6 452/3/6 453/3/6
f 453/3/6 452/3/6 454/3/6
f 453/4/6 454/4/6 455/4/6
f 455/4/6 454/4/6 456/4/6
f 455/3/6 456/3/6 457/3/6
f 457/3/6 456/3/6 458/3/6
f 457/4/6 458/4/6 459/4/6
f 459/4/6 458/4/6 460/4/6
f 459/3/6 460/3/6 461/3/6
f 461/3/6 460/3/6 462/3/6
f 461/4/6 462/4/6 463/4/6
f 463/4/6 462/4/6 464/4/6
f 463/3/6 464/3/6 465/3/6
f 465/3/6 464/3/6 466/3/6
f 466/3/6 464/3/6 467/3/6
f 467/3/6 464/3/6 468/3/6
f 468/3/6 464/3/6 469/3/6
f 469/3/6 464/3/6 470/3/6
f 470/3/6 464/3/6 471/3/6
f 471/3/6 464/3/6 472/3/6
f 472/3/6 464/3/6 473/3/6
f 473/3/6 464/3/6 474/3/6
f 474/3/6 464/3/6 475/3/6
f 475/3/6 464/3/6 476/3/6
f 476/3/6 464/3/6 477/3/6
f 477/3/6 464/3/6 478/3/6
f 478/3/6 464/3/6 479/3/6
f 479/3/6 464/3/6 480/3/6
f 480/3/6 464/3/6 481/3/6
f 481/3/6 464/3/6 482/3/6
f 482/3/6 464/3/6 483/3/6
f 483/3/6 464/3/6 484/3/6
f 484/3/6 464/3/6 485/3/6
f 485/3/6 464/3/6 486/3/6
f 486/3/6 464/3/6 487/3/6
f 487/3/6 464/3/6 488/3/6
f 466/4/6 467/4/6 489/4/6
f 489/4/6 467/4/6 490/4/6
f 468/4/6 469/4/6 491/4/6
f 491/4/6 469/4/6 492/4/6
f 470/4/6 471/4/6 493/4/6
f 493/4/6 471/4/6 494/4/6
f 472/4/6 473/4/6 495/4/6
f 495/4/6 473/4/6 496/4/6
f 474/4/6 475/4/6 497/4/6
f 497/4/6 475/4/6 498/4/6
f 476/4/6 477/4/6 499/4/6
f 499/4/6 477/4/6 500/4/6
f 478/4/6 479/4/6 501/4/6
f 501/4/6 479/4/6 502/4/6
f 480/4/6 481/4/6 503/4/6
f 503/4/6 481/4/6 504/4/6
f 482/4/6 483/4/6 505/4/6
f 505/4/6 483/4/6 506/4/6
f 484/4/6 485/4/6 507/4/6
f 507/4/6 485/4/6 508/4/6
f 486/4/6 487/4/6 509/4/6
f 509/4/6 487/4/6 510/4/6
f 511/1/6 512/1/6 515/1/6
f 515/1/6 512/1/6 516/1/6
f 513/1/6 514/1/6 517/1/6
f 517/1/6 514/1/6 518/1/6
f 519/1/6 520/1/6 521/1/6
f 521/1/6 520/1/6 522/1/6
