# MagicaVoxel @ Ephtracy

# group
o 

# material
mtllib Kids Boss Left Arm.mtl
usemtl palette

# normals
vn -1 0 0
vn 1 0 0
vn 0 0 1
vn 0 0 -1
vn 0 -1 0
vn 0 1 0

# texcoords
vt 0.369141 0.5
vt 0.990234 0.5
vt 0.994141 0.5

# verts
v -1.2 4.2 -1.3
v -1.2 4.2 -1.9
v -1.2 4.7 -1.3
v -1.2 4.7 -1.9
v 0.3 5.8 -1.5
v 0.3 5.8 -1.8
v 0.3 7.1 -1.5
v 0.3 7.1 -1.8
v 0.4 5.2 -1.5
v 0.4 5.2 -1.8
v 0.4 5.6 -1.4
v 0.4 5.6 -1.5
v 0.4 5.6 -1.8
v 0.4 5.6 -1.9
v 0.4 5.8 -1.5
v 0.4 5.8 -1.8
v 0.4 7.1 -1.5
v 0.4 7.1 -1.8
v 0.4 7.3 -1.4
v 0.4 7.3 -1.5
v 0.4 7.3 -1.8
v 0.4 7.3 -1.9
v 0.4 7.5 -1.5
v 0.4 7.5 -1.8
v 0.5 4.7 -1.5
v 0.5 4.7 -1.8
v 0.5 4.9 -1.5
v 0.5 4.9 -1.8
v 0.5 5.2 -1.4
v 0.5 5.2 -1.5
v 0.5 5.2 -1.8
v 0.5 5.2 -1.9
v 0.5 5.6 -1.4
v 0.5 5.6 -1.5
v 0.5 5.6 -1.8
v 0.5 5.6 -1.9
v 0.5 5.8 -1.3
v 0.5 5.8 -1.4
v 0.5 5.8 -1.9
v 0.5 5.8 -2
v 0.5 7.1 -1.3
v 0.5 7.1 -1.4
v 0.5 7.1 -1.9
v 0.5 7.1 -2
v 0.5 7.3 -1.4
v 0.5 7.3 -1.5
v 0.5 7.3 -1.8
v 0.5 7.3 -1.9
v 0.5 7.5 -1.4
v 0.5 7.5 -1.5
v 0.5 7.5 -1.8
v 0.5 7.5 -1.9
v 0.5 7.6 -1.5
v 0.5 7.6 -1.8
v -0.3 4.2 -1.3
v -0.3 4.2 -1.4
v -0.3 4.7 -1.3
v -0.3 4.7 -1.4
v 0.8 4.7 -1.5
v 0.8 4.7 -1.8
v 0.8 4.9 -1.5
v 0.8 4.9 -1.8
v 0.8 5.2 -1.4
v 0.8 5.2 -1.5
v 0.8 5.2 -1.8
v 0.8 5.2 -1.9
v 0.8 5.6 -1.4
v 0.8 5.6 -1.5
v 0.8 5.6 -1.8
v 0.8 5.6 -1.9
v 0.8 5.8 -1.3
v 0.8 5.8 -1.4
v 0.8 5.8 -1.9
v 0.8 5.8 -2
v 0.8 7.1 -1.3
v 0.8 7.1 -1.4
v 0.8 7.1 -1.9
v 0.8 7.1 -2
v 0.8 7.3 -1.4
v 0.8 7.3 -1.5
v 0.8 7.3 -1.8
v 0.8 7.3 -1.9
v 0.8 7.5 -1.4
v 0.8 7.5 -1.5
v 0.8 7.5 -1.8
v 0.8 7.5 -1.9
v 0.8 7.6 -1.5
v 0.8 7.6 -1.8
v 0.9 4.2 -1.4
v 0.9 4.2 -1.9
v 0.9 4.7 -1.4
v 0.9 4.7 -1.9
v 0.9 5.2 -1.5
v 0.9 5.2 -1.8
v 0.9 5.6 -1.4
v 0.9 5.6 -1.5
v 0.9 5.6 -1.8
v 0.9 5.6 -1.9
v 0.9 5.8 -1.5
v 0.9 5.8 -1.8
v 0.9 7.1 -1.5
v 0.9 7.1 -1.8
v 0.9 7.3 -1.4
v 0.9 7.3 -1.5
v 0.9 7.3 -1.8
v 0.9 7.3 -1.9
v 0.9 7.5 -1.5
v 0.9 7.5 -1.8
v 1 5.8 -1.5
v 1 5.8 -1.8
v 1 7.1 -1.5
v 1 7.1 -1.8
v -1.2 4.2 -1.3
v -1.2 4.7 -1.3
v -0.3 4.2 -1.3
v -0.3 4.7 -1.3
v 0.5 5.8 -1.3
v 0.5 7.1 -1.3
v 0.8 5.8 -1.3
v 0.8 7.1 -1.3
v -0.3 4.2 -1.4
v -0.3 4.7 -1.4
v 0.4 5.6 -1.4
v 0.4 7.3 -1.4
v 0.5 5.2 -1.4
v 0.5 5.6 -1.4
v 0.5 5.8 -1.4
v 0.5 7.1 -1.4
v 0.5 7.3 -1.4
v 0.5 7.5 -1.4
v 0.8 5.2 -1.4
v 0.8 5.6 -1.4
v 0.8 5.8 -1.4
v 0.8 7.1 -1.4
v 0.8 7.3 -1.4
v 0.8 7.5 -1.4
v 0.9 4.2 -1.4
v 0.9 4.7 -1.4
v 0.9 5.6 -1.4
v 0.9 7.3 -1.4
v 0.3 5.8 -1.5
v 0.3 7.1 -1.5
v 0.4 5.2 -1.5
v 0.4 5.6 -1.5
v 0.4 5.8 -1.5
v 0.4 7.1 -1.5
v 0.4 7.3 -1.5
v 0.4 7.5 -1.5
v 0.5 4.7 -1.5
v 0.5 4.9 -1.5
v 0.5 5.2 -1.5
v 0.5 5.6 -1.5
v 0.5 7.3 -1.5
v 0.5 7.5 -1.5
v 0.5 7.6 -1.5
v 0.8 4.7 -1.5
v 0.8 4.9 -1.5
v 0.8 5.2 -1.5
v 0.8 5.6 -1.5
v 0.8 7.3 -1.5
v 0.8 7.5 -1.5
v 0.8 7.6 -1.5
v 0.9 5.2 -1.5
v 0.9 5.6 -1.5
v 0.9 5.8 -1.5
v 0.9 7.1 -1.5
v 0.9 7.3 -1.5
v 0.9 7.5 -1.5
v 1 5.8 -1.5
v 1 7.1 -1.5
v 0.3 5.8 -1.8
v 0.3 7.1 -1.8
v 0.4 5.2 -1.8
v 0.4 5.6 -1.8
v 0.4 5.8 -1.8
v 0.4 7.1 -1.8
v 0.4 7.3 -1.8
v 0.4 7.5 -1.8
v 0.5 4.7 -1.8
v 0.5 4.9 -1.8
v 0.5 5.2 -1.8
v 0.5 5.6 -1.8
v 0.5 7.3 -1.8
v 0.5 7.5 -1.8
v 0.5 7.6 -1.8
v 0.8 4.7 -1.8
v 0.8 4.9 -1.8
v 0.8 5.2 -1.8
v 0.8 5.6 -1.8
v 0.8 7.3 -1.8
v 0.8 7.5 -1.8
v 0.8 7.6 -1.8
v 0.9 5.2 -1.8
v 0.9 5.6 -1.8
v 0.9 5.8 -1.8
v 0.9 7.1 -1.8
v 0.9 7.3 -1.8
v 0.9 7.5 -1.8
v 1 5.8 -1.8
v 1 7.1 -1.8
v -1.2 4.2 -1.9
v -1.2 4.7 -1.9
v 0.4 5.6 -1.9
v 0.4 7.3 -1.9
v 0.5 5.2 -1.9
v 0.5 5.6 -1.9
v 0.5 5.8 -1.9
v 0.5 7.1 -1.9
v 0.5 7.3 -1.9
v 0.5 7.5 -1.9
v 0.8 5.2 -1.9
v 0.8 5.6 -1.9
v 0.8 5.8 -1.9
v 0.8 7.1 -1.9
v 0.8 7.3 -1.9
v 0.8 7.5 -1.9
v 0.9 4.2 -1.9
v 0.9 4.7 -1.9
v 0.9 5.6 -1.9
v 0.9 7.3 -1.9
v 0.5 5.8 -2
v 0.5 7.1 -2
v 0.8 5.8 -2
v 0.8 7.1 -2
v -1.2 4.2 -1.3
v -0.3 4.2 -1.3
v -0.3 4.2 -1.4
v 0.9 4.2 -1.4
v -1.2 4.2 -1.9
v 0.9 4.2 -1.9
v 0.5 5.2 -1.4
v 0.8 5.2 -1.4
v 0.4 5.2 -1.5
v 0.5 5.2 -1.5
v 0.8 5.2 -1.5
v 0.9 5.2 -1.5
v 0.4 5.2 -1.8
v 0.5 5.2 -1.8
v 0.8 5.2 -1.8
v 0.9 5.2 -1.8
v 0.5 5.2 -1.9
v 0.8 5.2 -1.9
v 0.4 5.6 -1.4
v 0.5 5.6 -1.4
v 0.8 5.6 -1.4
v 0.9 5.6 -1.4
v 0.4 5.6 -1.5
v 0.5 5.6 -1.5
v 0.8 5.6 -1.5
v 0.9 5.6 -1.5
v 0.4 5.6 -1.8
v 0.5 5.6 -1.8
v 0.8 5.6 -1.8
v 0.9 5.6 -1.8
v 0.4 5.6 -1.9
v 0.5 5.6 -1.9
v 0.8 5.6 -1.9
v 0.9 5.6 -1.9
v 0.5 5.8 -1.3
v 0.8 5.8 -1.3
v 0.5 5.8 -1.4
v 0.8 5.8 -1.4
v 0.3 5.8 -1.5
v 0.4 5.8 -1.5
v 0.9 5.8 -1.5
v 1 5.8 -1.5
v 0.3 5.8 -1.8
v 0.4 5.8 -1.8
v 0.9 5.8 -1.8
v 1 5.8 -1.8
v 0.5 5.8 -1.9
v 0.8 5.8 -1.9
v 0.5 5.8 -2
v 0.8 5.8 -2
v -1.2 4.7 -1.3
v -0.3 4.7 -1.3
v -0.3 4.7 -1.4
v 0.9 4.7 -1.4
v 0.5 4.7 -1.5
v 0.8 4.7 -1.5
v 0.5 4.7 -1.8
v 0.8 4.7 -1.8
v -1.2 4.7 -1.9
v 0.9 4.7 -1.9
v 0.5 7.1 -1.3
v 0.8 7.1 -1.3
v 0.5 7.1 -1.4
v 0.8 7.1 -1.4
v 0.3 7.1 -1.5
v 0.4 7.1 -1.5
v 0.9 7.1 -1.5
v 1 7.1 -1.5
v 0.3 7.1 -1.8
v 0.4 7.1 -1.8
v 0.9 7.1 -1.8
v 1 7.1 -1.8
v 0.5 7.1 -1.9
v 0.8 7.1 -1.9
v 0.5 7.1 -2
v 0.8 7.1 -2
v 0.4 7.3 -1.4
v 0.5 7.3 -1.4
v 0.8 7.3 -1.4
v 0.9 7.3 -1.4
v 0.4 7.3 -1.5
v 0.5 7.3 -1.5
v 0.8 7.3 -1.5
v 0.9 7.3 -1.5
v 0.4 7.3 -1.8
v 0.5 7.3 -1.8
v 0.8 7.3 -1.8
v 0.9 7.3 -1.8
v 0.4 7.3 -1.9
v 0.5 7.3 -1.9
v 0.8 7.3 -1.9
v 0.9 7.3 -1.9
v 0.5 7.5 -1.4
v 0.8 7.5 -1.4
v 0.4 7.5 -1.5
v 0.5 7.5 -1.5
v 0.8 7.5 -1.5
v 0.9 7.5 -1.5
v 0.4 7.5 -1.8
v 0.5 7.5 -1.8
v 0.8 7.5 -1.8
v 0.9 7.5 -1.8
v 0.5 7.5 -1.9
v 0.8 7.5 -1.9
v 0.5 7.6 -1.5
v 0.8 7.6 -1.5
v 0.5 7.6 -1.8
v 0.8 7.6 -1.8

# faces
f 3/2/1 2/2/1 1/2/1
f 4/2/1 2/2/1 3/2/1
f 7/1/1 6/1/1 5/1/1
f 8/1/1 6/1/1 7/1/1
f 12/1/1 10/1/1 9/1/1
f 13/1/1 10/1/1 12/1/1
f 15/1/1 12/1/1 11/1/1
f 15/1/1 14/1/1 13/1/1
f 15/1/1 13/1/1 12/1/1
f 16/1/1 14/1/1 15/1/1
f 17/1/1 15/1/1 11/1/1
f 18/1/1 14/1/1 16/1/1
f 19/1/1 17/1/1 11/1/1
f 19/1/1 18/1/1 17/1/1
f 20/1/1 18/1/1 19/1/1
f 21/1/1 14/1/1 18/1/1
f 21/1/1 18/1/1 20/1/1
f 22/1/1 14/1/1 21/1/1
f 23/1/1 21/1/1 20/1/1
f 24/1/1 21/1/1 23/1/1
f 27/3/1 26/3/1 25/3/1
f 28/3/1 26/3/1 27/3/1
f 30/1/1 28/1/1 27/1/1
f 31/1/1 28/1/1 30/1/1
f 33/1/1 30/1/1 29/1/1
f 34/1/1 30/1/1 33/1/1
f 35/1/1 32/1/1 31/1/1
f 36/1/1 32/1/1 35/1/1
f 41/1/1 38/1/1 37/1/1
f 42/1/1 38/1/1 41/1/1
f 43/1/1 40/1/1 39/1/1
f 44/1/1 40/1/1 43/1/1
f 49/1/1 46/1/1 45/1/1
f 50/1/1 46/1/1 49/1/1
f 51/1/1 48/1/1 47/1/1
f 52/1/1 48/1/1 51/1/1
f 53/1/1 51/1/1 50/1/1
f 54/1/1 51/1/1 53/1/1
f 55/2/2 56/2/2 57/2/2
f 57/2/2 56/2/2 58/2/2
f 59/3/2 60/3/2 61/3/2
f 61/3/2 60/3/2 62/3/2
f 61/1/2 62/1/2 64/1/2
f 64/1/2 62/1/2 65/1/2
f 63/1/2 64/1/2 67/1/2
f 67/1/2 64/1/2 68/1/2
f 65/1/2 66/1/2 69/1/2
f 69/1/2 66/1/2 70/1/2
f 71/1/2 72/1/2 75/1/2
f 75/1/2 72/1/2 76/1/2
f 73/1/2 74/1/2 77/1/2
f 77/1/2 74/1/2 78/1/2
f 79/1/2 80/1/2 83/1/2
f 83/1/2 80/1/2 84/1/2
f 81/1/2 82/1/2 85/1/2
f 85/1/2 82/1/2 86/1/2
f 84/1/2 85/1/2 87/1/2
f 87/1/2 85/1/2 88/1/2
f 89/2/2 90/2/2 91/2/2
f 91/2/2 90/2/2 92/2/2
f 93/1/2 94/1/2 96/1/2
f 96/1/2 94/1/2 97/1/2
f 95/1/2 96/1/2 99/1/2
f 97/1/2 98/1/2 99/1/2
f 96/1/2 97/1/2 99/1/2
f 99/1/2 98/1/2 100/1/2
f 95/1/2 99/1/2 101/1/2
f 100/1/2 98/1/2 102/1/2
f 95/1/2 101/1/2 103/1/2
f 101/1/2 102/1/2 103/1/2
f 103/1/2 102/1/2 104/1/2
f 102/1/2 98/1/2 105/1/2
f 104/1/2 102/1/2 105/1/2
f 105/1/2 98/1/2 106/1/2
f 104/1/2 105/1/2 107/1/2
f 107/1/2 105/1/2 108/1/2
f 109/1/2 110/1/2 111/1/2
f 111/1/2 110/1/2 112/1/2
f 115/2/3 114/2/3 113/2/3
f 116/2/3 114/2/3 115/2/3
f 119/1/3 118/1/3 117/1/3
f 120/1/3 118/1/3 119/1/3
f 126/1/3 124/1/3 123/1/3
f 127/1/3 124/1/3 126/1/3
f 128/1/3 124/1/3 127/1/3
f 129/1/3 124/1/3 128/1/3
f 131/1/3 126/1/3 125/1/3
f 131/1/3 127/1/3 126/1/3
f 132/1/3 127/1/3 131/1/3
f 133/1/3 127/1/3 132/1/3
f 134/1/3 130/1/3 129/1/3
f 134/1/3 129/1/3 128/1/3
f 135/1/3 130/1/3 134/1/3
f 136/1/3 130/1/3 135/1/3
f 137/2/3 122/2/3 121/2/3
f 138/2/3 122/2/3 137/2/3
f 139/1/3 133/1/3 132/1/3
f 139/1/3 135/1/3 134/1/3
f 139/1/3 134/1/3 133/1/3
f 140/1/3 135/1/3 139/1/3
f 145/1/3 142/1/3 141/1/3
f 146/1/3 142/1/3 145/1/3
f 151/1/3 144/1/3 143/1/3
f 152/1/3 144/1/3 151/1/3
f 153/1/3 148/1/3 147/1/3
f 154/1/3 148/1/3 153/1/3
f 156/3/3 150/3/3 149/3/3
f 157/1/3 151/1/3 150/1/3
f 157/3/3 150/3/3 156/3/3
f 158/1/3 151/1/3 157/1/3
f 161/1/3 155/1/3 154/1/3
f 162/1/3 155/1/3 161/1/3
f 163/1/3 159/1/3 158/1/3
f 164/1/3 159/1/3 163/1/3
f 167/1/3 161/1/3 160/1/3
f 168/1/3 161/1/3 167/1/3
f 169/1/3 166/1/3 165/1/3
f 170/1/3 166/1/3 169/1/3
f 171/1/4 172/1/4 175/1/4
f 175/1/4 172/1/4 176/1/4
f 173/1/4 174/1/4 181/1/4
f 181/1/4 174/1/4 182/1/4
f 177/1/4 178/1/4 183/1/4
f 183/1/4 178/1/4 184/1/4
f 179/3/4 180/3/4 186/3/4
f 180/1/4 181/1/4 187/1/4
f 186/3/4 180/3/4 187/3/4
f 187/1/4 181/1/4 188/1/4
f 184/1/4 185/1/4 191/1/4
f 191/1/4 185/1/4 192/1/4
f 188/1/4 189/1/4 193/1/4
f 193/1/4 189/1/4 194/1/4
f 190/1/4 191/1/4 197/1/4
f 197/1/4 191/1/4 198/1/4
f 195/1/4 196/1/4 199/1/4
f 199/1/4 196/1/4 200/1/4
f 203/1/4 204/1/4 206/1/4
f 206/1/4 204/1/4 207/1/4
f 207/1/4 204/1/4 208/1/4
f 208/1/4 204/1/4 209/1/4
f 205/1/4 206/1/4 211/1/4
f 206/1/4 207/1/4 211/1/4
f 211/1/4 207/1/4 212/1/4
f 212/1/4 207/1/4 213/1/4
f 209/1/4 210/1/4 214/1/4
f 208/1/4 209/1/4 214/1/4
f 214/1/4 210/1/4 215/1/4
f 215/1/4 210/1/4 216/1/4
f 201/2/4 202/2/4 217/2/4
f 217/2/4 202/2/4 218/2/4
f 212/1/4 213/1/4 219/1/4
f 214/1/4 215/1/4 219/1/4
f 213/1/4 214/1/4 219/1/4
f 219/1/4 215/1/4 220/1/4
f 221/1/4 222/1/4 223/1/4
f 223/1/4 222/1/4 224/1/4
f 227/2/5 226/2/5 225/2/5
f 229/2/5 227/2/5 225/2/5
f 229/2/5 228/2/5 227/2/5
f 230/2/5 228/2/5 229/2/5
f 234/1/5 232/1/5 231/1/5
f 235/1/5 232/1/5 234/1/5
f 237/1/5 234/1/5 233/1/5
f 238/1/5 234/1/5 237/1/5
f 239/1/5 236/1/5 235/1/5
f 240/1/5 236/1/5 239/1/5
f 241/1/5 239/1/5 238/1/5
f 242/1/5 239/1/5 241/1/5
f 247/1/5 244/1/5 243/1/5
f 248/1/5 244/1/5 247/1/5
f 249/1/5 246/1/5 245/1/5
f 250/1/5 246/1/5 249/1/5
f 255/1/5 252/1/5 251/1/5
f 256/1/5 252/1/5 255/1/5
f 257/1/5 254/1/5 253/1/5
f 258/1/5 254/1/5 257/1/5
f 261/1/5 260/1/5 259/1/5
f 262/1/5 260/1/5 261/1/5
f 267/1/5 264/1/5 263/1/5
f 268/1/5 264/1/5 267/1/5
f 269/1/5 266/1/5 265/1/5
f 270/1/5 266/1/5 269/1/5
f 273/1/5 272/1/5 271/1/5
f 274/1/5 272/1/5 273/1/5
f 275/2/6 276/2/6 277/2/6
f 277/2/6 278/2/6 279/2/6
f 279/2/6 278/2/6 280/2/6
f 277/2/6 279/2/6 281/2/6
f 280/2/6 278/2/6 282/2/6
f 275/2/6 277/2/6 283/2/6
f 281/2/6 282/2/6 283/2/6
f 277/2/6 281/2/6 283/2/6
f 282/2/6 278/2/6 284/2/6
f 283/2/6 282/2/6 284/2/6
f 285/1/6 286/1/6 287/1/6
f 287/1/6 286/1/6 288/1/6
f 289/1/6 290/1/6 293/1/6
f 293/1/6 290/1/6 294/1/6
f 291/1/6 292/1/6 295/1/6
f 295/1/6 292/1/6 296/1/6
f 297/1/6 298/1/6 299/1/6
f 299/1/6 298/1/6 300/1/6
f 301/1/6 302/1/6 305/1/6
f 305/1/6 302/1/6 306/1/6
f 303/1/6 304/1/6 307/1/6
f 307/1/6 304/1/6 308/1/6
f 309/1/6 310/1/6 313/1/6
f 313/1/6 310/1/6 314/1/6
f 311/1/6 312/1/6 315/1/6
f 315/1/6 312/1/6 316/1/6
f 317/1/6 318/1/6 320/1/6
f 320/1/6 318/1/6 321/1/6
f 319/1/6 320/1/6 323/1/6
f 323/1/6 320/1/6 324/1/6
f 321/1/6 322/1/6 325/1/6
f 325/1/6 322/1/6 326/1/6
f 324/1/6 325/1/6 327/1/6
f 327/1/6 325/1/6 328/1/6
f 329/1/6 330/1/6 331/1/6
f 331/1/6 330/1/6 332/1/6
