# MagicaVoxel @ Ephtracy

# group
o 

# material
mtllib Kids Boss Head.mtl
usemtl palette

# normals
vn -1 0 0
vn 1 0 0
vn 0 0 1
vn 0 0 -1
vn 0 -1 0
vn 0 1 0

# texcoords
vt 0.919922 0.5
vt 0.962891 0.5
vt 0.994141 0.5

# verts
v -1.4 5.8 0.5
v -1.4 5.8 -0.5
v -1.4 6.6 0.5
v -1.4 6.6 0.4
v -1.4 6.6 -0.4
v -1.4 6.6 -0.5
v -1.4 6.7 0.4
v -1.4 6.7 -0.4
v -1.3 5.6 0.4
v -1.3 5.6 -0.4
v -1.3 5.7 0.5
v -1.3 5.7 0.4
v -1.3 5.7 -0.4
v -1.3 5.7 -0.5
v -1.3 5.8 0.6
v -1.3 5.8 0.5
v -1.3 5.8 -0.5
v -1.3 5.8 -0.6
v -1.3 6.6 0.6
v -1.3 6.6 0.5
v -1.3 6.6 0.4
v -1.3 6.6 -0.4
v -1.3 6.6 -0.5
v -1.3 6.6 -0.6
v -1.3 6.7 0.5
v -1.3 6.7 0.4
v -1.3 6.7 -0.4
v -1.3 6.7 -0.5
v -1.3 6.8 0.4
v -1.3 6.8 -0.4
v -1.1 5.8 0.6
v -1.1 5.8 0.5
v -1.1 5.8 -0.5
v -1.1 5.8 -0.6
v -1.1 5.9 0.6
v -1.1 5.9 0.5
v -1.1 5.9 -0.5
v -1.1 5.9 -0.6
v -1 5.9 0.6
v -1 5.9 0.5
v -1 5.9 -0.5
v -1 5.9 -0.6
v -1 6 0.6
v -1 6 0.5
v -1 6 -0.5
v -1 6 -0.6
v -0.8 6 0.6
v -0.8 6 0.5
v -0.8 6 -0.5
v -0.8 6 -0.6
v -0.8 6.1 0.6
v -0.8 6.1 0.5
v -0.8 6.1 -0.5
v -0.8 6.1 -0.6
v -0.5 5.6 0.4
v -0.5 5.6 -0.4
v -0.5 5.7 0.5
v -0.5 5.7 0.4
v -0.5 5.7 -0.4
v -0.5 5.7 -0.5
v -0.5 6 0.4
v -0.5 6 -0.4
v -0.5 6.1 0.6
v -0.5 6.1 0.5
v -0.5 6.1 -0.5
v -0.5 6.1 -0.6
v -0.5 6.3 0.6
v -0.5 6.3 0.5
v -0.5 6.3 0.4
v -0.5 6.3 -0.4
v -0.5 6.3 -0.5
v -0.5 6.3 -0.6
v -0.5 6.4 0.4
v -0.5 6.4 -0.4
v -0.5 6.5 0.6
v -0.5 6.5 0.5
v -0.5 6.5 -0.5
v -0.5 6.5 -0.6
v -0.5 6.6 0.6
v -0.5 6.6 0.5
v -0.5 6.6 0.4
v -0.5 6.6 -0.4
v -0.5 6.6 -0.5
v -0.5 6.6 -0.6
v -0.5 6.7 0.5
v -0.5 6.7 0.4
v -0.5 6.7 -0.4
v -0.5 6.7 -0.5
v -0.5 6.8 0.4
v -0.5 6.8 -0.4
v -0.4 6.3 0.6
v -0.4 6.3 0.5
v -0.4 6.3 -0.5
v -0.4 6.3 -0.6
v -0.4 6.4 0.5
v -0.4 6.4 0.4
v -0.4 6.4 -0.4
v -0.4 6.4 -0.5
v -0.4 6.5 0.6
v -0.4 6.5 0.5
v -0.4 6.5 0.4
v -0.4 6.5 -0.4
v -0.4 6.5 -0.5
v -0.4 6.5 -0.6
v -0.4 6.6 0.5
v -0.4 6.6 0.4
v -0.4 6.6 -0.4
v -0.4 6.6 -0.5
v -0.4 6.7 0.4
v -0.4 6.7 -0.4
v -0.1 6.3 0.5
v -0.1 6.3 0.4
v -0.1 6.3 -0.4
v -0.1 6.3 -0.5
v -0.1 6.4 0.5
v -0.1 6.4 0.4
v -0.1 6.4 -0.4
v -0.1 6.4 -0.5
v -0.1 6.5 0.4
v -0.1 6.5 -0.4
v -1.3 5.8 0.6
v -1.3 6.6 0.6
v -1.1 5.8 0.6
v -1.1 5.9 0.6
v -1 5.9 0.6
v -1 6 0.6
v -0.8 6 0.6
v -0.8 6.1 0.6
v -0.5 6.1 0.6
v -0.5 6.3 0.6
v -0.5 6.5 0.6
v -0.5 6.6 0.6
v -0.4 6.3 0.6
v -0.4 6.5 0.6
v -1.4 5.8 0.5
v -1.4 6.6 0.5
v -1.3 5.7 0.5
v -1.3 5.8 0.5
v -1.3 6.6 0.5
v -1.3 6.7 0.5
v -1.1 5.8 0.5
v -1.1 5.9 0.5
v -1 5.9 0.5
v -1 6 0.5
v -0.8 6 0.5
v -0.8 6.1 0.5
v -0.5 5.7 0.5
v -0.5 6.1 0.5
v -0.5 6.5 0.5
v -0.5 6.6 0.5
v -0.5 6.7 0.5
v -0.4 6.3 0.5
v -0.4 6.4 0.5
v -0.4 6.5 0.5
v -0.4 6.6 0.5
v -0.1 6.3 0.5
v -0.1 6.4 0.5
v -1.4 6.6 0.4
v -1.4 6.7 0.4
v -1.3 5.6 0.4
v -1.3 5.7 0.4
v -1.3 6.6 0.4
v -1.3 6.7 0.4
v -1.3 6.8 0.4
v -0.5 5.6 0.4
v -0.5 5.7 0.4
v -0.5 6.6 0.4
v -0.5 6.7 0.4
v -0.5 6.8 0.4
v -0.4 6.4 0.4
v -0.4 6.5 0.4
v -0.4 6.6 0.4
v -0.4 6.7 0.4
v -0.1 6.4 0.4
v -0.1 6.5 0.4
v -0.5 6.3 -0.4
v -0.5 6.4 -0.4
v -0.1 6.3 -0.4
v -0.1 6.4 -0.4
v -0.5 6.3 0.4
v -0.5 6.4 0.4
v -0.1 6.3 0.4
v -0.1 6.4 0.4
v -1.4 6.6 -0.4
v -1.4 6.7 -0.4
v -1.3 5.6 -0.4
v -1.3 5.7 -0.4
v -1.3 6.6 -0.4
v -1.3 6.7 -0.4
v -1.3 6.8 -0.4
v -0.5 5.6 -0.4
v -0.5 5.7 -0.4
v -0.5 6.6 -0.4
v -0.5 6.7 -0.4
v -0.5 6.8 -0.4
v -0.4 6.4 -0.4
v -0.4 6.5 -0.4
v -0.4 6.6 -0.4
v -0.4 6.7 -0.4
v -0.1 6.4 -0.4
v -0.1 6.5 -0.4
v -1.4 5.8 -0.5
v -1.4 6.6 -0.5
v -1.3 5.7 -0.5
v -1.3 5.8 -0.5
v -1.3 6.6 -0.5
v -1.3 6.7 -0.5
v -1.1 5.8 -0.5
v -1.1 5.9 -0.5
v -1 5.9 -0.5
v -1 6 -0.5
v -0.8 6 -0.5
v -0.8 6.1 -0.5
v -0.5 5.7 -0.5
v -0.5 6.1 -0.5
v -0.5 6.5 -0.5
v -0.5 6.6 -0.5
v -0.5 6.7 -0.5
v -0.4 6.3 -0.5
v -0.4 6.4 -0.5
v -0.4 6.5 -0.5
v -0.4 6.6 -0.5
v -0.1 6.3 -0.5
v -0.1 6.4 -0.5
v -1.3 5.8 -0.6
v -1.3 6.6 -0.6
v -1.1 5.8 -0.6
v -1.1 5.9 -0.6
v -1 5.9 -0.6
v -1 6 -0.6
v -0.8 6 -0.6
v -0.8 6.1 -0.6
v -0.5 6.1 -0.6
v -0.5 6.3 -0.6
v -0.5 6.5 -0.6
v -0.5 6.6 -0.6
v -0.4 6.3 -0.6
v -0.4 6.5 -0.6
v -1.3 5.6 0.4
v -0.5 5.6 0.4
v -1.3 5.6 -0.4
v -0.5 5.6 -0.4
v -1.3 5.7 0.5
v -0.5 5.7 0.5
v -1.3 5.7 0.4
v -0.5 5.7 0.4
v -1.3 5.7 -0.4
v -0.5 5.7 -0.4
v -1.3 5.7 -0.5
v -0.5 5.7 -0.5
v -1.3 5.8 0.6
v -1.1 5.8 0.6
v -1.4 5.8 0.5
v -1.3 5.8 0.5
v -1.1 5.8 0.5
v -1.4 5.8 -0.5
v -1.3 5.8 -0.5
v -1.1 5.8 -0.5
v -1.3 5.8 -0.6
v -1.1 5.8 -0.6
v -1.1 5.9 0.6
v -1 5.9 0.6
v -1.1 5.9 0.5
v -1 5.9 0.5
v -1.1 5.9 -0.5
v -1 5.9 -0.5
v -1.1 5.9 -0.6
v -1 5.9 -0.6
v -1 6 0.6
v -0.8 6 0.6
v -1 6 0.5
v -0.8 6 0.5
v -1 6 -0.5
v -0.8 6 -0.5
v -1 6 -0.6
v -0.8 6 -0.6
v -0.8 6.1 0.6
v -0.5 6.1 0.6
v -0.8 6.1 0.5
v -0.5 6.1 0.5
v -0.8 6.1 -0.5
v -0.5 6.1 -0.5
v -0.8 6.1 -0.6
v -0.5 6.1 -0.6
v -0.5 6.3 0.6
v -0.4 6.3 0.6
v -0.5 6.3 0.5
v -0.4 6.3 0.5
v -0.1 6.3 0.5
v -0.5 6.3 0.4
v -0.1 6.3 0.4
v -0.5 6.3 -0.4
v -0.1 6.3 -0.4
v -0.5 6.3 -0.5
v -0.4 6.3 -0.5
v -0.1 6.3 -0.5
v -0.5 6.3 -0.6
v -0.4 6.3 -0.6
v -0.5 6.4 0.4
v -0.1 6.4 0.4
v -0.5 6.4 -0.4
v -0.1 6.4 -0.4
v -0.4 6.4 0.5
v -0.1 6.4 0.5
v -0.4 6.4 0.4
v -0.1 6.4 0.4
v -0.4 6.4 -0.4
v -0.1 6.4 -0.4
v -0.4 6.4 -0.5
v -0.1 6.4 -0.5
v -0.5 6.5 0.6
v -0.4 6.5 0.6
v -0.5 6.5 0.5
v -0.4 6.5 0.5
v -0.4 6.5 0.4
v -0.1 6.5 0.4
v -0.4 6.5 -0.4
v -0.1 6.5 -0.4
v -0.5 6.5 -0.5
v -0.4 6.5 -0.5
v -0.5 6.5 -0.6
v -0.4 6.5 -0.6
v -1.3 6.6 0.6
v -0.5 6.6 0.6
v -1.4 6.6 0.5
v -1.3 6.6 0.5
v -0.5 6.6 0.5
v -0.4 6.6 0.5
v -1.4 6.6 0.4
v -1.3 6.6 0.4
v -0.5 6.6 0.4
v -0.4 6.6 0.4
v -1.4 6.6 -0.4
v -1.3 6.6 -0.4
v -0.5 6.6 -0.4
v -0.4 6.6 -0.4
v -1.4 6.6 -0.5
v -1.3 6.6 -0.5
v -0.5 6.6 -0.5
v -0.4 6.6 -0.5
v -1.3 6.6 -0.6
v -0.5 6.6 -0.6
v -1.3 6.7 0.5
v -0.5 6.7 0.5
v -1.4 6.7 0.4
v -1.3 6.7 0.4
v -0.5 6.7 0.4
v -0.4 6.7 0.4
v -1.4 6.7 -0.4
v -1.3 6.7 -0.4
v -0.5 6.7 -0.4
v -0.4 6.7 -0.4
v -1.3 6.7 -0.5
v -0.5 6.7 -0.5
v -1.3 6.8 0.4
v -0.5 6.8 0.4
v -1.3 6.8 -0.4
v -0.5 6.8 -0.4

# faces
f 3/1/1 2/1/1 1/1/1
f 4/1/1 2/1/1 3/1/1
f 5/1/1 2/1/1 4/1/1
f 6/1/1 2/1/1 5/1/1
f 7/1/1 5/1/1 4/1/1
f 8/1/1 5/1/1 7/1/1
f 12/2/1 10/2/1 9/2/1
f 13/2/1 10/2/1 12/2/1
f 16/2/1 12/2/1 11/2/1
f 16/2/1 14/2/1 13/2/1
f 16/2/1 13/2/1 12/2/1
f 17/2/1 14/2/1 16/2/1
f 19/1/1 16/1/1 15/1/1
f 20/1/1 16/1/1 19/1/1
f 23/1/1 18/1/1 17/1/1
f 24/1/1 18/1/1 23/1/1
f 25/1/1 21/1/1 20/1/1
f 26/1/1 21/1/1 25/1/1
f 27/1/1 23/1/1 22/1/1
f 28/1/1 23/1/1 27/1/1
f 29/1/1 27/1/1 26/1/1
f 30/1/1 27/1/1 29/1/1
f 31/1/2 32/1/2 35/1/2
f 35/1/2 32/1/2 36/1/2
f 33/1/2 34/1/2 37/1/2
f 37/1/2 34/1/2 38/1/2
f 39/1/2 40/1/2 43/1/2
f 43/1/2 40/1/2 44/1/2
f 41/1/2 42/1/2 45/1/2
f 45/1/2 42/1/2 46/1/2
f 47/1/2 48/1/2 51/1/2
f 51/1/2 48/1/2 52/1/2
f 49/1/2 50/1/2 53/1/2
f 53/1/2 50/1/2 54/1/2
f 55/2/2 56/2/2 58/2/2
f 58/2/2 56/2/2 59/2/2
f 57/2/2 58/2/2 61/2/2
f 59/2/2 60/2/2 61/2/2
f 58/2/2 59/2/2 61/2/2
f 61/2/2 60/2/2 62/2/2
f 57/2/2 61/2/2 64/2/2
f 62/2/2 60/2/2 65/2/2
f 63/1/2 64/1/2 67/1/2
f 64/2/2 61/2/2 68/2/2
f 67/1/2 64/1/2 68/1/2
f 61/3/2 62/3/2 69/3/2
f 68/2/2 61/2/2 69/2/2
f 62/2/2 65/2/2 70/2/2
f 69/3/2 62/3/2 70/3/2
f 65/1/2 66/1/2 71/1/2
f 70/2/2 65/2/2 71/2/2
f 71/1/2 66/1/2 72/1/2
f 69/3/2 70/3/2 73/3/2
f 73/3/2 70/3/2 74/3/2
f 75/1/2 76/1/2 79/1/2
f 79/1/2 76/1/2 80/1/2
f 77/1/2 78/1/2 83/1/2
f 83/1/2 78/1/2 84/1/2
f 80/1/2 81/1/2 85/1/2
f 85/1/2 81/1/2 86/1/2
f 82/1/2 83/1/2 87/1/2
f 87/1/2 83/1/2 88/1/2
f 86/1/2 87/1/2 89/1/2
f 89/1/2 87/1/2 90/1/2
f 91/1/2 92/1/2 95/1/2
f 93/1/2 94/1/2 98/1/2
f 95/1/2 96/1/2 99/1/2
f 91/1/2 95/1/2 99/1/2
f 99/1/2 96/1/2 100/1/2
f 100/1/2 96/1/2 101/1/2
f 97/1/2 98/1/2 102/1/2
f 98/1/2 94/1/2 103/1/2
f 102/1/2 98/1/2 103/1/2
f 103/1/2 94/1/2 104/1/2
f 100/1/2 101/1/2 105/1/2
f 101/1/2 102/1/2 105/1/2
f 102/1/2 103/1/2 105/1/2
f 105/1/2 103/1/2 106/1/2
f 106/1/2 103/1/2 107/1/2
f 107/1/2 103/1/2 108/1/2
f 106/1/2 107/1/2 109/1/2
f 109/1/2 107/1/2 110/1/2
f 111/1/2 112/1/2 115/1/2
f 115/1/2 112/1/2 116/1/2
f 113/1/2 114/1/2 117/1/2
f 117/1/2 114/1/2 118/1/2
f 116/1/2 117/1/2 119/1/2
f 119/1/2 117/1/2 120/1/2
f 123/1/3 122/1/3 121/1/3
f 124/1/3 122/1/3 123/1/3
f 125/1/3 122/1/3 124/1/3
f 126/1/3 122/1/3 125/1/3
f 127/1/3 122/1/3 126/1/3
f 128/1/3 122/1/3 127/1/3
f 129/1/3 122/1/3 128/1/3
f 130/1/3 122/1/3 129/1/3
f 131/1/3 122/1/3 130/1/3
f 132/1/3 122/1/3 131/1/3
f 133/1/3 131/1/3 130/1/3
f 134/1/3 131/1/3 133/1/3
f 138/1/3 136/1/3 135/1/3
f 139/1/3 136/1/3 138/1/3
f 141/2/3 138/2/3 137/2/3
f 143/2/3 142/2/3 141/2/3
f 145/2/3 144/2/3 143/2/3
f 147/2/3 141/2/3 137/2/3
f 147/2/3 146/2/3 145/2/3
f 147/2/3 145/2/3 143/2/3
f 147/2/3 143/2/3 141/2/3
f 148/2/3 146/2/3 147/2/3
f 150/1/3 140/1/3 139/1/3
f 151/1/3 140/1/3 150/1/3
f 154/1/3 150/1/3 149/1/3
f 155/1/3 150/1/3 154/1/3
f 156/1/3 153/1/3 152/1/3
f 157/1/3 153/1/3 156/1/3
f 162/1/3 159/1/3 158/1/3
f 163/1/3 159/1/3 162/1/3
f 165/2/3 161/2/3 160/2/3
f 166/2/3 161/2/3 165/2/3
f 168/1/3 164/1/3 163/1/3
f 169/1/3 164/1/3 168/1/3
f 172/1/3 168/1/3 167/1/3
f 173/1/3 168/1/3 172/1/3
f 174/1/3 171/1/3 170/1/3
f 175/1/3 171/1/3 174/1/3
f 178/1/3 177/1/3 176/1/3
f 179/1/3 177/1/3 178/1/3
f 180/1/4 181/1/4 182/1/4
f 182/1/4 181/1/4 183/1/4
f 184/1/4 185/1/4 188/1/4
f 188/1/4 185/1/4 189/1/4
f 186/2/4 187/2/4 191/2/4
f 191/2/4 187/2/4 192/2/4
f 189/1/4 190/1/4 194/1/4
f 194/1/4 190/1/4 195/1/4
f 193/1/4 194/1/4 198/1/4
f 198/1/4 194/1/4 199/1/4
f 196/1/4 197/1/4 200/1/4
f 200/1/4 197/1/4 201/1/4
f 202/1/4 203/1/4 205/1/4
f 205/1/4 203/1/4 206/1/4
f 204/2/4 205/2/4 208/2/4
f 208/2/4 209/2/4 210/2/4
f 210/2/4 211/2/4 212/2/4
f 204/2/4 208/2/4 214/2/4
f 212/2/4 213/2/4 214/2/4
f 210/2/4 212/2/4 214/2/4
f 208/2/4 210/2/4 214/2/4
f 214/2/4 213/2/4 215/2/4
f 206/1/4 207/1/4 217/1/4
f 217/1/4 207/1/4 218/1/4
f 216/1/4 217/1/4 221/1/4
f 221/1/4 217/1/4 222/1/4
f 219/1/4 220/1/4 223/1/4
f 223/1/4 220/1/4 224/1/4
f 225/1/4 226/1/4 227/1/4
f 227/1/4 226/1/4 228/1/4
f 228/1/4 226/1/4 229/1/4
f 229/1/4 226/1/4 230/1/4
f 230/1/4 226/1/4 231/1/4
f 231/1/4 226/1/4 232/1/4
f 232/1/4 226/1/4 233/1/4
f 233/1/4 226/1/4 234/1/4
f 234/1/4 226/1/4 235/1/4
f 235/1/4 226/1/4 236/1/4
f 234/1/4 235/1/4 237/1/4
f 237/1/4 235/1/4 238/1/4
f 241/2/5 240/2/5 239/2/5
f 242/2/5 240/2/5 241/2/5
f 245/2/5 244/2/5 243/2/5
f 246/2/5 244/2/5 245/2/5
f 249/2/5 248/2/5 247/2/5
f 250/2/5 248/2/5 249/2/5
f 254/1/5 252/1/5 251/1/5
f 255/1/5 252/1/5 254/1/5
f 256/1/5 254/1/5 253/1/5
f 257/1/5 254/1/5 256/1/5
f 259/1/5 258/1/5 257/1/5
f 260/1/5 258/1/5 259/1/5
f 263/1/5 262/1/5 261/1/5
f 264/1/5 262/1/5 263/1/5
f 267/1/5 266/1/5 265/1/5
f 268/1/5 266/1/5 267/1/5
f 271/1/5 270/1/5 269/1/5
f 272/1/5 270/1/5 271/1/5
f 275/1/5 274/1/5 273/1/5
f 276/1/5 274/1/5 275/1/5
f 279/1/5 278/1/5 277/1/5
f 280/1/5 278/1/5 279/1/5
f 283/1/5 282/1/5 281/1/5
f 284/1/5 282/1/5 283/1/5
f 287/1/5 286/1/5 285/1/5
f 288/1/5 286/1/5 287/1/5
f 290/1/5 288/1/5 287/1/5
f 290/1/5 289/1/5 288/1/5
f 291/1/5 289/1/5 290/1/5
f 294/1/5 293/1/5 292/1/5
f 295/1/5 293/1/5 294/1/5
f 296/1/5 293/1/5 295/1/5
f 297/1/5 295/1/5 294/1/5
f 298/1/5 295/1/5 297/1/5
f 301/1/5 300/1/5 299/1/5
f 302/1/5 300/1/5 301/1/5
f 303/1/6 304/1/6 305/1/6
f 305/1/6 304/1/6 306/1/6
f 307/1/6 308/1/6 309/1/6
f 309/1/6 308/1/6 310/1/6
f 311/1/6 312/1/6 313/1/6
f 313/1/6 312/1/6 314/1/6
f 315/1/6 316/1/6 317/1/6
f 317/1/6 316/1/6 318/1/6
f 319/1/6 320/1/6 321/1/6
f 321/1/6 320/1/6 322/1/6
f 323/1/6 324/1/6 326/1/6
f 326/1/6 324/1/6 327/1/6
f 325/1/6 326/1/6 329/1/6
f 329/1/6 326/1/6 330/1/6
f 327/1/6 328/1/6 331/1/6
f 331/1/6 328/1/6 332/1/6
f 333/1/6 334/1/6 337/1/6
f 337/1/6 334/1/6 338/1/6
f 335/1/6 336/1/6 339/1/6
f 339/1/6 336/1/6 340/1/6
f 338/1/6 339/1/6 341/1/6
f 341/1/6 339/1/6 342/1/6
f 343/1/6 344/1/6 346/1/6
f 346/1/6 344/1/6 347/1/6
f 345/1/6 346/1/6 349/1/6
f 349/1/6 346/1/6 350/1/6
f 347/1/6 348/1/6 351/1/6
f 351/1/6 348/1/6 352/1/6
f 350/1/6 351/1/6 353/1/6
f 353/1/6 351/1/6 354/1/6
f 355/1/6 356/1/6 357/1/6
f 357/1/6 356/1/6 358/1/6
